<svg width="289" height="259" viewBox="0 0 289 259" fill="none" xmlns="http://www.w3.org/2000/svg">
<g filter="url(#filter0_d_2_33)">
<rect x="61.2435" y="23.7062" width="200" height="200" rx="8" fill="#937DE2"/>
</g>
<path d="M96.1562 118.463V102.044H98.8516V116.172H105.826V118.463H96.1562ZM120.553 112.218C120.553 113.252 120.419 114.169 120.149 114.97C119.879 115.771 119.486 116.449 118.97 117.003C118.453 117.549 117.832 117.968 117.106 118.26C116.379 118.545 115.56 118.687 114.646 118.687C113.793 118.687 113.01 118.545 112.299 118.26C111.588 117.968 110.97 117.549 110.446 117.003C109.929 116.449 109.529 115.771 109.244 114.97C108.96 114.169 108.817 113.252 108.817 112.218C108.817 110.848 109.053 109.688 109.525 108.737C110.004 107.779 110.685 107.049 111.569 106.547C112.452 106.045 113.504 105.795 114.725 105.795C115.87 105.795 116.881 106.045 117.757 106.547C118.633 107.049 119.318 107.779 119.812 108.737C120.306 109.695 120.553 110.856 120.553 112.218ZM111.535 112.218C111.535 113.124 111.644 113.899 111.861 114.543C112.086 115.187 112.43 115.681 112.894 116.026C113.358 116.362 113.957 116.531 114.691 116.531C115.425 116.531 116.024 116.362 116.488 116.026C116.952 115.681 117.293 115.187 117.51 114.543C117.727 113.899 117.836 113.124 117.836 112.218C117.836 111.313 117.727 110.545 117.51 109.916C117.293 109.28 116.952 108.797 116.488 108.467C116.024 108.131 115.421 107.962 114.68 107.962C113.587 107.962 112.789 108.329 112.288 109.063C111.786 109.796 111.535 110.848 111.535 112.218ZM135.741 112.218C135.741 113.252 135.607 114.169 135.337 114.97C135.068 115.771 134.675 116.449 134.158 117.003C133.641 117.549 133.02 117.968 132.294 118.26C131.567 118.545 130.748 118.687 129.834 118.687C128.981 118.687 128.198 118.545 127.487 118.26C126.776 117.968 126.158 117.549 125.634 117.003C125.117 116.449 124.717 115.771 124.432 114.97C124.148 114.169 124.006 113.252 124.006 112.218C124.006 110.848 124.241 109.688 124.713 108.737C125.192 107.779 125.874 107.049 126.757 106.547C127.64 106.045 128.692 105.795 129.913 105.795C131.058 105.795 132.069 106.045 132.945 106.547C133.821 107.049 134.506 107.779 135 108.737C135.494 109.695 135.741 110.856 135.741 112.218ZM126.723 112.218C126.723 113.124 126.832 113.899 127.049 114.543C127.274 115.187 127.618 115.681 128.082 116.026C128.546 116.362 129.145 116.531 129.879 116.531C130.613 116.531 131.212 116.362 131.676 116.026C132.14 115.681 132.481 115.187 132.698 114.543C132.915 113.899 133.024 113.124 133.024 112.218C133.024 111.313 132.915 110.545 132.698 109.916C132.481 109.28 132.14 108.797 131.676 108.467C131.212 108.131 130.609 107.962 129.868 107.962C128.775 107.962 127.977 108.329 127.476 109.063C126.974 109.796 126.723 110.848 126.723 112.218ZM142.563 100.988V109.433C142.563 109.815 142.548 110.234 142.518 110.691C142.488 111.14 142.458 111.563 142.428 111.96H142.484C142.679 111.698 142.911 111.391 143.18 111.039C143.457 110.687 143.72 110.38 143.967 110.118L147.763 106.03H150.795L145.82 111.376L151.12 118.463H148.021L144.045 113.005L142.563 114.274V118.463H139.924V100.988H142.563ZM156.897 106.03V118.463H154.258V106.03H156.897ZM155.595 101.269C155.999 101.269 156.347 101.377 156.639 101.594C156.939 101.812 157.088 102.186 157.088 102.717C157.088 103.242 156.939 103.616 156.639 103.84C156.347 104.058 155.999 104.166 155.595 104.166C155.175 104.166 154.82 104.058 154.528 103.84C154.243 103.616 154.101 103.242 154.101 102.717C154.101 102.186 154.243 101.812 154.528 101.594C154.82 101.377 155.175 101.269 155.595 101.269ZM168.312 105.795C169.712 105.795 170.801 106.158 171.58 106.884C172.366 107.603 172.759 108.759 172.759 110.354V118.463H170.12V110.848C170.12 109.882 169.922 109.16 169.525 108.681C169.128 108.194 168.514 107.951 167.683 107.951C166.478 107.951 165.639 108.321 165.167 109.063C164.703 109.804 164.471 110.878 164.471 112.286V118.463H161.832V106.03H163.887L164.258 107.715H164.404C164.673 107.281 165.007 106.925 165.403 106.648C165.808 106.364 166.257 106.15 166.751 106.008C167.253 105.866 167.773 105.795 168.312 105.795ZM181.153 123.988C179.468 123.988 178.177 123.685 177.278 123.078C176.38 122.472 175.931 121.622 175.931 120.529C175.931 119.765 176.17 119.118 176.65 118.586C177.129 118.062 177.814 117.699 178.705 117.497C178.368 117.347 178.076 117.115 177.829 116.8C177.589 116.479 177.469 116.123 177.469 115.734C177.469 115.269 177.6 114.873 177.862 114.543C178.124 114.214 178.518 113.896 179.042 113.589C178.39 113.312 177.866 112.862 177.469 112.241C177.08 111.612 176.885 110.875 176.885 110.028C176.885 109.13 177.076 108.366 177.458 107.737C177.84 107.101 178.398 106.618 179.131 106.289C179.865 105.952 180.752 105.783 181.793 105.783C182.018 105.783 182.261 105.798 182.523 105.828C182.793 105.851 183.04 105.881 183.264 105.918C183.496 105.948 183.672 105.982 183.792 106.019H188.093V107.49L185.982 107.883C186.184 108.168 186.345 108.494 186.465 108.861C186.585 109.22 186.645 109.613 186.645 110.04C186.645 111.327 186.199 112.342 185.308 113.083C184.425 113.817 183.204 114.184 181.647 114.184C181.273 114.169 180.91 114.139 180.558 114.094C180.288 114.259 180.082 114.442 179.94 114.644C179.798 114.839 179.727 115.06 179.727 115.307C179.727 115.509 179.798 115.674 179.94 115.801C180.082 115.921 180.292 116.011 180.569 116.07C180.853 116.13 181.198 116.16 181.602 116.16H183.747C185.11 116.16 186.15 116.449 186.869 117.025C187.588 117.602 187.947 118.448 187.947 119.563C187.947 120.978 187.363 122.068 186.195 122.831C185.027 123.602 183.347 123.988 181.153 123.988ZM181.254 122.135C182.175 122.135 182.95 122.045 183.579 121.865C184.208 121.686 184.683 121.427 185.005 121.09C185.327 120.761 185.488 120.368 185.488 119.911C185.488 119.507 185.387 119.196 185.185 118.979C184.983 118.762 184.679 118.612 184.275 118.53C183.871 118.448 183.369 118.406 182.77 118.406H180.816C180.329 118.406 179.899 118.481 179.525 118.631C179.15 118.788 178.858 119.013 178.649 119.305C178.446 119.597 178.345 119.949 178.345 120.361C178.345 120.93 178.596 121.368 179.098 121.674C179.607 121.981 180.326 122.135 181.254 122.135ZM181.771 112.454C182.542 112.454 183.115 112.245 183.489 111.825C183.863 111.399 184.05 110.8 184.05 110.028C184.05 109.19 183.856 108.561 183.466 108.142C183.085 107.722 182.516 107.513 181.759 107.513C181.018 107.513 180.453 107.726 180.064 108.153C179.682 108.58 179.491 109.212 179.491 110.051C179.491 110.807 179.682 111.399 180.064 111.825C180.453 112.245 181.022 112.454 181.771 112.454ZM204.847 108.041H201.826V118.463H199.187V108.041H197.154V106.772L199.187 105.997V105.132C199.187 104.076 199.352 103.238 199.681 102.616C200.018 101.995 200.497 101.549 201.118 101.28C201.747 101.003 202.496 100.864 203.365 100.864C203.934 100.864 204.454 100.913 204.926 101.01C205.397 101.1 205.794 101.205 206.116 101.325L205.431 103.324C205.176 103.242 204.892 103.167 204.577 103.099C204.263 103.024 203.926 102.987 203.567 102.987C202.968 102.987 202.526 103.174 202.242 103.549C201.964 103.923 201.826 104.469 201.826 105.188V106.03H204.847V108.041ZM219.125 112.218C219.125 113.252 218.991 114.169 218.721 114.97C218.452 115.771 218.058 116.449 217.542 117.003C217.025 117.549 216.404 117.968 215.678 118.26C214.951 118.545 214.132 118.687 213.218 118.687C212.365 118.687 211.582 118.545 210.871 118.26C210.16 117.968 209.542 117.549 209.018 117.003C208.501 116.449 208.101 115.771 207.816 114.97C207.532 114.169 207.39 113.252 207.39 112.218C207.39 110.848 207.625 109.688 208.097 108.737C208.576 107.779 209.258 107.049 210.141 106.547C211.024 106.045 212.076 105.795 213.297 105.795C214.442 105.795 215.453 106.045 216.329 106.547C217.205 107.049 217.89 107.779 218.384 108.737C218.878 109.695 219.125 110.856 219.125 112.218ZM210.107 112.218C210.107 113.124 210.216 113.899 210.433 114.543C210.658 115.187 211.002 115.681 211.466 116.026C211.93 116.362 212.529 116.531 213.263 116.531C213.997 116.531 214.596 116.362 215.06 116.026C215.524 115.681 215.865 115.187 216.082 114.543C216.299 113.899 216.408 113.124 216.408 112.218C216.408 111.313 216.299 110.545 216.082 109.916C215.865 109.28 215.524 108.797 215.06 108.467C214.596 108.131 213.993 107.962 213.252 107.962C212.159 107.962 211.361 108.329 210.86 109.063C210.358 109.796 210.107 110.848 210.107 112.218ZM229.608 105.795C229.818 105.795 230.046 105.806 230.293 105.828C230.54 105.851 230.753 105.881 230.933 105.918L230.686 108.389C230.529 108.344 230.334 108.31 230.102 108.288C229.877 108.265 229.675 108.254 229.496 108.254C229.024 108.254 228.575 108.333 228.148 108.49C227.721 108.64 227.343 108.872 227.014 109.186C226.684 109.493 226.426 109.879 226.239 110.343C226.052 110.807 225.958 111.346 225.958 111.96V118.463H223.308V106.03H225.374L225.733 108.22H225.857C226.104 107.779 226.411 107.374 226.778 107.007C227.145 106.641 227.564 106.349 228.036 106.132C228.515 105.907 229.039 105.795 229.608 105.795Z" fill="#F8E71C"/>
<path d="M127.331 86.4626L125.725 81.903H119.447L117.841 86.4626H115L121.109 69.9762H124.097L130.195 86.4626H127.331ZM125.029 79.5895L123.468 75.0973C123.408 74.9027 123.322 74.6294 123.209 74.2775C123.097 73.9181 122.985 73.555 122.873 73.1882C122.76 72.8138 122.667 72.4994 122.592 72.2448C122.517 72.5518 122.423 72.8962 122.311 73.278C122.206 73.6523 122.101 74.0042 121.997 74.3337C121.899 74.6631 121.824 74.9176 121.772 75.0973L120.2 79.5895H125.029ZM135.893 86.4626H133.243V68.988H135.893V86.4626ZM150.98 86.4513L149.408 80.6676C149.333 80.3831 149.243 80.0387 149.138 79.6344C149.034 79.2301 148.929 78.8146 148.824 78.3879C148.719 77.9536 148.622 77.5531 148.532 77.1862C148.45 76.8193 148.386 76.5348 148.341 76.3327H148.251C148.214 76.5348 148.154 76.8193 148.071 77.1862C147.989 77.5531 147.896 77.9536 147.791 78.3879C147.686 78.8221 147.581 79.2451 147.476 79.6569C147.379 80.0687 147.289 80.4206 147.207 80.7126L145.556 86.4513H142.658L139.177 74.0192H141.85L143.467 80.196C143.572 80.6152 143.673 81.0682 143.77 81.5549C143.875 82.0415 143.965 82.5057 144.04 82.9474C144.115 83.3892 144.171 83.7523 144.208 84.0368H144.298C144.328 83.8346 144.369 83.5801 144.422 83.2731C144.474 82.9587 144.534 82.633 144.601 82.2961C144.669 81.9517 144.736 81.6297 144.803 81.3302C144.871 81.0233 144.934 80.7762 144.994 80.589L146.904 74.0192H149.79L151.62 80.589C151.703 80.8735 151.793 81.2329 151.89 81.6672C151.987 82.0939 152.073 82.5244 152.148 82.9587C152.231 83.3854 152.283 83.7411 152.305 84.0256H152.395C152.425 83.771 152.478 83.4266 152.552 82.9924C152.635 82.5506 152.728 82.0827 152.833 81.5885C152.938 81.0869 153.047 80.6227 153.159 80.196L154.81 74.0192H157.438L153.934 86.4513H150.98ZM165.596 73.7946C167.168 73.7946 168.354 74.1427 169.156 74.839C169.964 75.5353 170.368 76.6209 170.368 78.0959V86.4626H168.493L167.988 84.6994H167.898C167.546 85.1486 167.183 85.5192 166.808 85.8112C166.434 86.1032 166 86.3203 165.506 86.4626C165.019 86.6123 164.424 86.6872 163.72 86.6872C162.979 86.6872 162.316 86.5524 161.732 86.2829C161.148 86.0059 160.688 85.5866 160.351 85.0251C160.014 84.4635 159.846 83.7523 159.846 82.8913C159.846 81.611 160.321 80.6489 161.272 80.0051C162.23 79.3612 163.675 79.0055 165.607 78.9382L167.763 78.8595V78.2082C167.763 77.3472 167.561 76.7332 167.157 76.3664C166.76 75.9995 166.198 75.8161 165.472 75.8161C164.851 75.8161 164.248 75.9059 163.664 76.0856C163.08 76.2653 162.511 76.4862 161.957 76.7482L161.103 74.884C161.71 74.562 162.399 74.3 163.17 74.0978C163.948 73.8957 164.757 73.7946 165.596 73.7946ZM167.752 80.5217L166.146 80.5778C164.828 80.6227 163.903 80.8473 163.372 81.2516C162.84 81.6559 162.575 82.21 162.575 82.9137C162.575 83.5277 162.758 83.9769 163.125 84.2614C163.492 84.5384 163.975 84.6769 164.574 84.6769C165.487 84.6769 166.243 84.4186 166.842 83.902C167.449 83.3779 167.752 82.6105 167.752 81.5998V80.5217ZM173.338 74.0304H176.213L178.762 81.1281C178.874 81.45 178.975 81.7682 179.065 82.0827C179.163 82.3897 179.245 82.6929 179.312 82.9924C179.387 83.2918 179.447 83.5913 179.492 83.8908H179.559C179.634 83.5015 179.739 83.0672 179.874 82.5881C180.016 82.1014 180.173 81.6148 180.346 81.1281L182.794 74.0304H185.635L180.301 88.1696C179.994 88.9782 179.616 89.667 179.166 90.236C178.725 90.8125 178.201 91.2467 177.594 91.5387C176.988 91.8382 176.295 91.988 175.517 91.988C175.142 91.988 174.816 91.9655 174.539 91.9206C174.262 91.8831 174.027 91.842 173.832 91.797V89.6857C173.989 89.7231 174.188 89.7568 174.427 89.7868C174.667 89.8167 174.914 89.8317 175.168 89.8317C175.64 89.8317 176.048 89.7381 176.392 89.5509C176.737 89.3638 177.029 89.098 177.268 88.7536C177.508 88.4167 177.706 88.0311 177.864 87.5968L178.302 86.4289L173.338 74.0304ZM197.027 82.9137C197.027 83.7298 196.829 84.4186 196.432 84.9801C196.035 85.5417 195.455 85.9684 194.691 86.2604C193.935 86.5449 193.007 86.6872 191.906 86.6872C191.038 86.6872 190.289 86.6235 189.66 86.4963C189.039 86.3765 188.451 86.1893 187.897 85.9347V83.655C188.488 83.932 189.151 84.1716 189.885 84.3737C190.626 84.5759 191.326 84.6769 191.985 84.6769C192.853 84.6769 193.479 84.5422 193.86 84.2726C194.242 83.9956 194.433 83.6287 194.433 83.172C194.433 82.9025 194.354 82.6629 194.197 82.4533C194.048 82.2362 193.763 82.0153 193.344 81.7907C192.932 81.5586 192.326 81.2816 191.524 80.9596C190.738 80.6452 190.076 80.3307 189.537 80.0163C188.998 79.7018 188.59 79.3237 188.312 78.882C188.035 78.4328 187.897 77.86 187.897 77.1637C187.897 76.0632 188.331 75.2284 189.2 74.6593C190.076 74.0829 191.232 73.7946 192.67 73.7946C193.434 73.7946 194.152 73.8732 194.826 74.0304C195.507 74.1802 196.174 74.401 196.825 74.693L195.994 76.6808C195.433 76.4338 194.867 76.2316 194.298 76.0744C193.737 75.9097 193.164 75.8273 192.58 75.8273C191.899 75.8273 191.378 75.9321 191.019 76.1418C190.667 76.3514 190.491 76.6509 190.491 77.0402C190.491 77.3322 190.577 77.5793 190.75 77.7814C190.922 77.9836 191.217 78.1857 191.637 78.3879C192.063 78.59 192.655 78.8408 193.411 79.1403C194.152 79.4248 194.792 79.7243 195.332 80.0387C195.878 80.3457 196.297 80.7238 196.589 81.173C196.881 81.6222 197.027 82.2025 197.027 82.9137ZM203.692 83.7897L203.849 84.048C203.714 84.5871 203.542 85.1673 203.332 85.7887C203.122 86.4102 202.894 87.0316 202.647 87.653C202.4 88.2819 202.149 88.8734 201.895 89.4274H199.963C200.12 88.821 200.27 88.1846 200.412 87.5182C200.562 86.8594 200.697 86.208 200.817 85.5641C200.944 84.9128 201.045 84.3213 201.12 83.7897H203.692Z" fill="#F8E71C"/>
<path d="M105.762 154.308C106.331 154.308 106.894 154.259 107.45 154.16C108.007 154.049 108.514 153.919 108.972 153.77V157.073C108.489 157.283 107.865 157.463 107.098 157.611C106.331 157.759 105.533 157.834 104.704 157.834C103.541 157.834 102.496 157.642 101.568 157.258C100.641 156.863 99.9046 156.188 99.3604 155.236C98.8161 154.284 98.5439 152.966 98.5439 151.284V140.244H95.7422V138.296L98.748 136.756L100.177 132.358H102.923V136.923H108.805V140.244H102.923V151.228C102.923 152.267 103.183 153.04 103.702 153.548C104.222 154.055 104.908 154.308 105.762 154.308ZM123.099 136.533C125.697 136.533 127.657 137.108 128.981 138.258C130.317 139.409 130.985 141.202 130.985 143.639V157.463H127.886L127.051 154.549H126.903C126.322 155.292 125.722 155.904 125.103 156.386C124.485 156.869 123.767 157.228 122.951 157.463C122.147 157.71 121.163 157.834 120.001 157.834C118.776 157.834 117.681 157.611 116.716 157.166C115.752 156.708 114.991 156.015 114.434 155.088C113.878 154.16 113.599 152.985 113.599 151.562C113.599 149.447 114.385 147.857 115.956 146.794C117.539 145.73 119.926 145.142 123.118 145.031L126.68 144.901V143.825C126.68 142.402 126.346 141.388 125.678 140.782C125.023 140.176 124.095 139.873 122.895 139.873C121.868 139.873 120.873 140.021 119.908 140.318C118.943 140.615 118.003 140.98 117.087 141.413L115.677 138.333C116.679 137.801 117.817 137.368 119.091 137.034C120.378 136.7 121.714 136.533 123.099 136.533ZM126.662 147.647L124.008 147.74C121.831 147.814 120.304 148.185 119.425 148.853C118.547 149.521 118.108 150.437 118.108 151.599C118.108 152.614 118.411 153.356 119.017 153.826C119.623 154.284 120.421 154.512 121.411 154.512C122.92 154.512 124.169 154.086 125.159 153.232C126.161 152.366 126.662 151.098 126.662 149.428V147.647ZM143.368 157.463H138.989V128.591H143.368V157.463ZM159.685 136.533C161.516 136.533 163.087 136.91 164.398 137.665C165.709 138.419 166.718 139.489 167.423 140.875C168.128 142.26 168.48 143.918 168.48 145.847V148.185H154.768C154.818 150.177 155.35 151.711 156.364 152.787C157.391 153.863 158.826 154.401 160.669 154.401C161.98 154.401 163.155 154.277 164.194 154.03C165.246 153.77 166.328 153.393 167.441 152.898V156.442C166.415 156.924 165.369 157.277 164.305 157.5C163.242 157.722 161.968 157.834 160.483 157.834C158.467 157.834 156.692 157.444 155.158 156.665C153.637 155.873 152.443 154.698 151.577 153.139C150.723 151.581 150.297 149.645 150.297 147.332C150.297 145.031 150.686 143.077 151.466 141.468C152.245 139.86 153.34 138.636 154.75 137.795C156.16 136.953 157.805 136.533 159.685 136.533ZM159.685 139.817C158.312 139.817 157.199 140.262 156.346 141.153C155.504 142.044 155.01 143.349 154.861 145.068H164.213C164.2 144.041 164.027 143.132 163.693 142.34C163.372 141.549 162.877 140.93 162.209 140.485C161.553 140.04 160.712 139.817 159.685 139.817ZM186.003 136.533C188.316 136.533 190.116 137.133 191.403 138.333C192.702 139.52 193.351 141.431 193.351 144.066V157.463H188.991V144.882C188.991 143.287 188.663 142.093 188.007 141.301C187.352 140.497 186.337 140.095 184.964 140.095C182.973 140.095 181.587 140.708 180.808 141.932C180.041 143.157 179.658 144.932 179.658 147.257V157.463H175.297V136.923H178.693L179.305 139.706H179.546C179.992 138.988 180.542 138.401 181.198 137.943C181.866 137.473 182.608 137.12 183.424 136.885C184.253 136.65 185.113 136.533 186.003 136.533ZM209 154.308C209.569 154.308 210.132 154.259 210.688 154.16C211.245 154.049 211.752 153.919 212.21 153.77V157.073C211.728 157.283 211.103 157.463 210.336 157.611C209.569 157.759 208.771 157.834 207.942 157.834C206.78 157.834 205.734 157.642 204.807 157.258C203.879 156.863 203.143 156.188 202.599 155.236C202.054 154.284 201.782 152.966 201.782 151.284V140.244H198.98V138.296L201.986 136.756L203.415 132.358H206.161V136.923H212.043V140.244H206.161V151.228C206.161 152.267 206.421 153.04 206.94 153.548C207.46 154.055 208.146 154.308 209 154.308ZM222.051 149.187H218.767L217.877 130.336H222.942L222.051 149.187ZM217.654 155.162C217.654 154.147 217.914 153.436 218.433 153.028C218.965 152.607 219.615 152.397 220.381 152.397C221.136 152.397 221.779 152.607 222.311 153.028C222.843 153.436 223.109 154.147 223.109 155.162C223.109 156.151 222.843 156.869 222.311 157.314C221.779 157.747 221.136 157.964 220.381 157.964C219.615 157.964 218.965 157.747 218.433 157.314C217.914 156.869 217.654 156.151 217.654 155.162Z" fill="#F8E71C"/>
<g filter="url(#filter1_d_2_33)">
<path d="M36.0135 69.5073C34.646 65.3059 36.9433 60.7915 41.1447 59.4241L128.627 30.95L216.11 2.47601C220.311 1.10855 224.826 3.40586 226.193 7.6072L283.141 182.573C284.509 186.774 282.212 191.288 278.01 192.656L103.045 249.604C98.8434 250.971 94.329 248.674 92.9615 244.473L36.0135 69.5073Z" stroke="#F8E71C" stroke-width="2" shape-rendering="crispEdges"/>
</g>
<rect x="63.2737" y="41.8151" width="43.5992" height="21" transform="rotate(-19.0327 63.2737 41.8151)" fill="#937DE2"/>
<rect x="41.228" y="105.95" width="10.6415" height="30.4963" transform="rotate(-17.4766 41.228 105.95)" fill="#7769C4"/>
<g filter="url(#filter2_d_2_33)">
<circle cx="72.9745" cy="48.3021" r="8.88181" transform="rotate(2.76458 72.9745 48.3021)" fill="#F8E71C"/>
</g>
<rect width="9.23754" height="80.1765" rx="4.61877" transform="matrix(0.895724 -0.444609 0.445006 0.895527 16.3696 53.2798)" fill="#D15460"/>
<rect width="9.23754" height="10.5894" rx="4.61877" transform="matrix(0.895724 -0.444609 0.445006 0.895527 14.1541 69.5794)" fill="white"/>
<path d="M22.8324 75.8186C20.1233 76.0459 18.5316 72.8428 20.3499 70.8229L56.3611 30.8186C57.7779 29.2447 60.3364 29.5948 61.2789 31.4915L78.9207 66.9937C79.8632 68.8904 78.5962 71.1393 76.4853 71.3164L22.8324 75.8186Z" fill="white"/>
<path d="M17.1503 65.2301C15.9215 62.7571 16.9304 59.7571 19.4039 58.5294L36.9901 49.8002L49.1075 74.1852L31.5213 82.9144C29.0479 84.1421 26.0465 83.1327 24.8177 80.6598L17.1503 65.2301Z" fill="#D15460"/>
<rect width="5.13664" height="51.434" rx="2.56832" transform="matrix(0.895724 -0.444609 0.445006 0.895527 56.675 27.4261)" fill="#D15460"/>
<rect width="6.15836" height="37.8191" rx="3.07918" transform="matrix(0.895724 -0.444609 0.445006 0.895527 33.9831 45.5946)" fill="#D15460"/>
<path d="M86.3447 44.1859C85.9597 44.2178 85.5912 44.0219 85.4638 43.6942C85.3143 43.3062 85.5638 42.8803 86.0157 42.7435L98.9233 38.8071C99.3752 38.6702 99.8656 38.8709 100.012 39.2567C100.162 39.6447 99.912 40.0707 99.4601 40.2075L86.5525 44.1439C86.4849 44.1669 86.4166 44.18 86.3447 44.1859Z" fill="#F8E71C"/>
<path d="M82.7275 36.9688C82.4973 37.0213 82.2472 36.9733 82.0585 36.8162C81.7486 36.5599 81.7272 36.1061 82.0082 35.8054L91.3542 25.8621C91.6352 25.5614 92.1166 25.5274 92.4265 25.7837C92.7364 26.0401 92.7578 26.4939 92.4768 26.7946L83.1308 36.7379C83.0194 36.856 82.8784 36.9345 82.7275 36.9688Z" fill="#F8E71C"/>
<path d="M99.0299 53.4155C98.9871 53.4144 98.9444 53.4112 98.9017 53.4059L86.9603 51.9657C86.4604 51.9047 86.1178 51.5797 86.1979 51.2382C86.278 50.8967 86.7464 50.6678 87.2463 50.7287L99.1878 52.169C99.6877 52.2299 100.03 52.555 99.9502 52.8964C99.8801 53.211 99.4793 53.4269 99.0299 53.4155Z" fill="#F8E71C"/>
<defs>
<filter id="filter0_d_2_33" x="57.2435" y="23.7062" width="208" height="208" filterUnits="userSpaceOnUse" color-interpolation-filters="sRGB">
<feFlood flood-opacity="0" result="BackgroundImageFix"/>
<feColorMatrix in="SourceAlpha" type="matrix" values="0 0 0 0 0 0 0 0 0 0 0 0 0 0 0 0 0 0 127 0" result="hardAlpha"/>
<feOffset dy="4"/>
<feGaussianBlur stdDeviation="2"/>
<feComposite in2="hardAlpha" operator="out"/>
<feColorMatrix type="matrix" values="0 0 0 0 0 0 0 0 0 0 0 0 0 0 0 0 0 0 0.25 0"/>
<feBlend mode="normal" in2="BackgroundImageFix" result="effect1_dropShadow_2_33"/>
<feBlend mode="normal" in="SourceGraphic" in2="effect1_dropShadow_2_33" result="shape"/>
</filter>
<filter id="filter1_d_2_33" x="30.6182" y="1.08076" width="257.918" height="257.918" filterUnits="userSpaceOnUse" color-interpolation-filters="sRGB">
<feFlood flood-opacity="0" result="BackgroundImageFix"/>
<feColorMatrix in="SourceAlpha" type="matrix" values="0 0 0 0 0 0 0 0 0 0 0 0 0 0 0 0 0 0 127 0" result="hardAlpha"/>
<feOffset dy="4"/>
<feGaussianBlur stdDeviation="2"/>
<feComposite in2="hardAlpha" operator="out"/>
<feColorMatrix type="matrix" values="0 0 0 0 0 0 0 0 0 0 0 0 0 0 0 0 0 0 0.25 0"/>
<feBlend mode="normal" in2="BackgroundImageFix" result="effect1_dropShadow_2_33"/>
<feBlend mode="normal" in="SourceGraphic" in2="effect1_dropShadow_2_33" result="shape"/>
</filter>
<filter id="filter2_d_2_33" x="60.0925" y="39.4201" width="25.764" height="25.764" filterUnits="userSpaceOnUse" color-interpolation-filters="sRGB">
<feFlood flood-opacity="0" result="BackgroundImageFix"/>
<feColorMatrix in="SourceAlpha" type="matrix" values="0 0 0 0 0 0 0 0 0 0 0 0 0 0 0 0 0 0 127 0" result="hardAlpha"/>
<feOffset dy="4"/>
<feGaussianBlur stdDeviation="2"/>
<feComposite in2="hardAlpha" operator="out"/>
<feColorMatrix type="matrix" values="0 0 0 0 0 0 0 0 0 0 0 0 0 0 0 0 0 0 0.25 0"/>
<feBlend mode="normal" in2="BackgroundImageFix" result="effect1_dropShadow_2_33"/>
<feBlend mode="normal" in="SourceGraphic" in2="effect1_dropShadow_2_33" result="shape"/>
</filter>
</defs>
</svg>
