<svg width="91" height="25" viewBox="0 0 91 25" fill="none" xmlns="http://www.w3.org/2000/svg">
<path d="M89.4043 1.29854C89.3454 0.749407 88.8524 0.352031 88.3033 0.410976L79.3547 1.37153C78.8056 1.43047 78.4082 1.92341 78.4672 2.47255C78.5261 3.02168 79.019 3.41905 79.5682 3.36011L87.5225 2.50628L88.3763 10.4606C88.4352 11.0097 88.9282 11.4071 89.4773 11.3481C90.0264 11.2892 90.4238 10.7963 90.3649 10.2471L89.4043 1.29854ZM0.845745 4.16006C1.29864 4.69903 1.76402 5.23081 2.24139 5.755L3.72008 4.40834C3.26042 3.90361 2.81255 3.39182 2.37692 2.8734L0.845745 4.16006ZM5.21554 8.77693C6.23805 9.73952 7.30291 10.6699 8.40657 11.5649L9.66627 10.0115C8.60045 9.14716 7.5727 8.24916 6.58644 7.32069L5.21554 8.77693ZM11.7902 14.1123C12.9422 14.9167 14.1283 15.6842 15.3449 16.4118L16.3714 14.6953C15.1951 13.9919 14.0486 13.2499 12.9352 12.4725L11.7902 14.1123ZM19.0531 18.4561C20.3079 19.0916 21.5894 19.6853 22.8944 20.2345L23.6701 18.3911C22.4087 17.8603 21.1699 17.2862 19.9567 16.6719L19.0531 18.4561ZM26.8546 21.7379C28.1877 22.1901 29.5408 22.596 30.9109 22.9526L31.4147 21.0171C30.0919 20.6728 28.7851 20.2809 27.4972 19.8439L26.8546 21.7379ZM35.0487 23.868C36.4344 24.1209 37.8339 24.3228 39.2442 24.4708L39.453 22.4817C38.0939 22.3391 36.7445 22.1444 35.4077 21.9005L35.0487 23.868ZM43.4752 24.7499C44.8833 24.7877 46.299 24.7705 47.7194 24.6955L47.6141 22.6983C46.2474 22.7704 44.8847 22.787 43.5288 22.7506L43.4752 24.7499ZM51.9416 24.3018C53.3342 24.1148 54.7286 23.8704 56.1219 23.566L55.6951 21.6121C54.3554 21.9047 53.0147 22.1398 51.6754 22.3196L51.9416 24.3018ZM60.2308 22.4905C61.5683 22.0813 62.9024 21.6143 64.2304 21.0874L63.4927 19.2284C62.215 19.7354 60.9319 20.1845 59.6457 20.578L60.2308 22.4905ZM68.1072 19.3673C69.3599 18.7511 70.6048 18.0787 71.8399 17.3481L70.8217 15.6267C69.6306 16.3312 68.4309 16.9792 67.2245 17.5726L68.1072 19.3673ZM75.4052 15.0558C76.5435 14.2635 77.6712 13.4186 78.7868 12.5197L77.5319 10.9624C76.4524 11.8322 75.3621 12.649 74.2626 13.4143L75.4052 15.0558ZM81.9865 9.75993C83.0038 8.82261 84.0091 7.8371 85.0009 6.80222L83.557 5.41835C82.5934 6.42379 81.6177 7.38026 80.6313 8.28908L81.9865 9.75993ZM87.8301 3.67135C88.2863 3.13651 88.7391 2.59039 89.1886 2.03286L87.6315 0.777665C87.1935 1.32094 86.7525 1.85284 86.3084 2.37349L87.8301 3.67135Z" fill="#937DE2"/>
</svg>
