<svg width="342" height="55" viewBox="0 0 342 55" fill="none" xmlns="http://www.w3.org/2000/svg">
<path d="M6.5787 8.54199H149.171C152.32 8.54199 154.875 11.1052 154.875 14.2635V48.5929C154.875 51.7512 152.32 54.3144 149.171 54.3144H6.5787C3.43026 54.3144 0.875 51.7512 0.875 48.5929V14.2635C0.875 11.1052 3.43026 8.54199 6.5787 8.54199Z" fill="black"/>
<path d="M149.171 9.45744C151.818 9.45744 153.962 11.6087 153.962 14.2635V48.5929C153.962 51.2477 151.818 53.399 149.171 53.399H6.5787C3.93219 53.399 1.78759 51.2477 1.78759 48.5929V14.2635C1.78759 11.6087 3.93219 9.45744 6.5787 9.45744H149.171ZM149.171 8.54199H6.5787C3.43026 8.54199 0.875 11.1052 0.875 14.2635V48.5929C0.875 51.7512 3.43026 54.3144 6.5787 54.3144H149.171C152.32 54.3144 154.875 51.7512 154.875 48.5929V14.2635C154.875 11.1052 152.32 8.54199 149.171 8.54199Z" fill="#A6A6A6"/>
<path d="M54.969 20.2596C55.0032 21.1064 54.6952 21.9303 54.1134 22.5483C53.4632 23.2348 52.5506 23.601 51.6038 23.5667C49.6189 23.5553 48.0219 21.9303 48.0333 19.9392C48.0447 19.0009 48.4097 18.0969 49.0827 17.4217C49.7444 16.7466 50.657 16.369 51.6038 16.3919C52.0829 16.3919 52.562 16.4834 53.0069 16.6779C53.4176 16.8496 53.7826 17.1128 54.0792 17.4446L53.4746 18.0511C53.0183 17.5018 52.3225 17.2043 51.6038 17.2386C50.1436 17.2272 48.9573 18.4173 48.9459 19.882C48.9459 19.882 48.9459 19.9507 48.9459 19.985C48.923 21.4726 50.1094 22.697 51.6038 22.7199C52.3111 22.7313 53.0069 22.4567 53.5088 21.9647C53.8625 21.587 54.0678 21.0835 54.0792 20.5686H51.6038V19.7447H54.9234C54.9576 19.9163 54.969 20.088 54.969 20.2596Z" fill="white" stroke="white" stroke-width="0.2" stroke-miterlimit="10"/>
<path d="M60.1933 17.399H57.1133V19.5732H59.9195V20.3971H57.1133V22.5713H60.1933V23.4181H56.2007V16.5522H60.1933V17.399Z" fill="white" stroke="white" stroke-width="0.2" stroke-miterlimit="10"/>
<path d="M63.935 23.4181H63.0566V17.399H61.1401V16.5522H65.897V17.399H63.935V23.4181Z" fill="white" stroke="white" stroke-width="0.2" stroke-miterlimit="10"/>
<path d="M69.251 23.4181V16.5522H70.1293V23.4181H69.251Z" fill="white" stroke="white" stroke-width="0.2" stroke-miterlimit="10"/>
<path d="M74.0306 23.4181H73.1523V17.399H71.2358V16.5522H75.9357V17.399H74.0306V23.4181Z" fill="white" stroke="white" stroke-width="0.2" stroke-miterlimit="10"/>
<path d="M84.8452 22.5256C83.4535 23.9102 81.2177 23.9102 79.826 22.5256C78.4799 21.0952 78.4799 18.8638 79.826 17.4334C81.2062 16.0487 83.4421 16.0487 84.8224 17.4334C86.1799 18.8523 86.1913 21.0952 84.8452 22.5256ZM80.4762 21.9534C81.5028 22.9833 83.1683 22.9833 84.195 21.9534C85.2102 20.832 85.2102 19.1384 84.195 18.017C83.1683 16.9871 81.5028 16.9871 80.4762 18.017C79.4609 19.1384 79.4609 20.832 80.4762 21.9534Z" fill="white" stroke="white" stroke-width="0.2" stroke-miterlimit="10"/>
<path d="M87.0923 23.4181V16.5522H88.1646L91.4955 21.8962V16.5522H92.3739V23.4181H91.4613L87.9821 17.8224V23.4181H87.0923Z" fill="white" stroke="white" stroke-width="0.2" stroke-miterlimit="10"/>
<path d="M78.605 33.4308C75.9242 33.4422 73.7682 35.6279 73.7796 38.317C73.7911 41.0061 75.9699 43.1689 78.6506 43.1574C81.3199 43.146 83.4759 40.9718 83.4759 38.2941C83.5102 35.6507 81.3998 33.4651 78.7647 33.4308H78.605ZM78.605 41.2464C76.9851 41.3609 75.5706 40.1364 75.4565 38.5115C75.3425 36.8866 76.5631 35.4677 78.1829 35.3532C79.8028 35.2388 81.2173 36.4632 81.3313 38.0881C81.3313 38.0881 81.3313 38.0881 81.3313 38.0996C81.3313 38.1682 81.3313 38.2369 81.3313 38.2941C81.4112 39.8504 80.2134 41.1663 78.6734 41.2464C78.6734 41.2464 78.6734 41.2464 78.662 41.2464H78.605ZM67.9847 33.4308C65.3039 33.4422 63.1365 35.6164 63.1479 38.3055C63.1594 40.9947 65.3268 43.1689 68.0075 43.1574C70.6768 43.146 72.8442 40.9718 72.8442 38.2941C72.8785 35.6622 70.8023 33.488 68.1786 33.4308H68.0303H67.9847ZM67.9847 41.2464C66.3648 41.3723 64.9503 40.1479 64.8248 38.523C64.6994 36.898 65.9199 35.4791 67.5398 35.3532C69.1596 35.2274 70.5742 36.4518 70.6996 38.0767C70.6996 38.0767 70.6996 38.0767 70.6996 38.0881C70.6996 38.1568 70.6996 38.2254 70.6996 38.2941C70.7795 39.8504 69.5817 41.1663 68.0417 41.2464C68.0417 41.2464 68.0417 41.2464 68.0303 41.2464H67.9847ZM55.3339 34.9298V36.9896H60.2619C60.182 37.9623 59.7828 38.8777 59.1211 39.5872C58.1287 40.6056 56.7484 41.1549 55.3225 41.0977C52.2995 41.0977 49.8469 38.6374 49.8469 35.605C49.8469 32.5726 52.2995 30.1123 55.3225 30.1123C56.7142 30.0894 58.0488 30.6158 59.0527 31.5884L60.5014 30.1352C59.1325 28.7506 57.2731 27.9839 55.3339 27.9953C51.1702 27.8122 47.6567 31.0506 47.4742 35.2274C47.2917 39.4041 50.5199 42.9286 54.6837 43.1116C54.7065 43.1116 54.7293 43.1116 54.7521 43.1116H55.3339C59.0071 43.3176 62.1555 40.5026 62.3722 36.8179C62.3837 36.6005 62.3837 36.3831 62.3722 36.1657C62.3722 35.7308 62.338 35.296 62.2582 34.8726L55.3339 34.9298ZM107.021 36.5319C106.268 34.1746 103.747 32.8815 101.397 33.6368C99.5148 34.2432 98.2599 36.0169 98.2942 37.9966C98.2942 38.0996 98.2942 38.1911 98.2942 38.2941C98.2371 40.926 100.313 43.1002 102.937 43.1574H103.108C104.728 43.1689 106.245 42.3564 107.146 41.0061L105.492 39.8618C104.99 40.6972 104.089 41.2121 103.108 41.2121C102.093 41.2464 101.169 40.6628 100.758 39.7359L107.249 37.0468L107.021 36.5319ZM100.405 38.1568C100.302 36.6921 101.42 35.4219 102.88 35.3189C103.633 35.2731 104.34 35.6736 104.682 36.3488L100.405 38.1568ZM95.1343 42.8713H97.2675V28.5675H95.1343V42.8713ZM91.6436 34.5179H91.5638C90.9136 33.7855 89.9896 33.3736 89.0085 33.3736C86.3278 33.4994 84.2631 35.7881 84.3885 38.4772C84.514 40.9832 86.5103 42.9858 89.0085 43.1116C89.9896 43.1231 90.925 42.7111 91.5638 41.9673H91.6322V42.6654C91.6322 44.5306 90.6398 45.5261 89.0428 45.5261C87.9591 45.5033 86.9894 44.8167 86.6016 43.7982L84.7422 44.5764C85.4608 46.3272 87.1605 47.46 89.0428 47.4486C91.541 47.4486 93.6057 45.9724 93.6057 42.3793V33.7169H91.6436V34.5179ZM89.2025 41.2464C87.5826 41.0977 86.3734 39.6673 86.5217 38.0309C86.6472 36.6005 87.7765 35.4677 89.2025 35.3418C90.7082 35.4219 91.8718 36.715 91.7919 38.2254V38.2941C91.9174 39.7931 90.8109 41.1091 89.3165 41.235H89.2025V41.2464ZM117.014 28.5675H111.915V42.8713H114.048V37.4473H117.025C119.466 37.619 121.588 35.7766 121.771 33.3278C121.942 30.879 120.105 28.7506 117.664 28.5675C117.447 28.556 117.242 28.556 117.025 28.5675H117.014ZM117.014 35.4333H114.036V30.5586H117.059C118.405 30.5586 119.501 31.6571 119.501 33.0074C119.501 34.3577 118.405 35.4677 117.059 35.4677L117.014 35.4333ZM130.166 33.3736C128.581 33.2706 127.075 34.1288 126.356 35.5592L128.25 36.3488C128.626 35.6393 129.391 35.2274 130.189 35.296C131.319 35.1587 132.334 35.9712 132.471 37.104V37.2871C131.786 36.9209 131.022 36.7378 130.246 36.7378C128.204 36.7378 126.14 37.8822 126.14 39.9534C126.231 41.7614 127.748 43.1689 129.562 43.1002H129.653C130.748 43.1803 131.798 42.6539 132.391 41.727H132.459V42.8713H134.513V37.3672C134.513 34.8612 132.619 33.4079 130.189 33.4079L130.166 33.3736ZM129.904 41.2121C129.208 41.2121 128.239 40.8574 128.239 39.9991C128.239 38.8548 129.448 38.4772 130.52 38.4772C131.193 38.4657 131.866 38.626 132.459 38.9578C132.311 40.2394 131.25 41.2121 129.961 41.2464L129.904 41.2121ZM142.03 33.7169L139.589 39.919H139.521L136.988 33.7169H134.707L138.505 42.3907L136.338 47.2083H138.562L144.403 33.7169H142.03ZM122.854 42.8713H124.987V28.5675H122.854V42.8713Z" fill="white"/>
<path d="M12.7842 17.1701C12.4192 17.6163 12.2367 18.1885 12.2823 18.7721V44.0842C12.2481 44.6678 12.4306 45.24 12.807 45.6863L12.8869 45.7664L26.9979 31.5998V31.268L12.8641 17.09L12.7842 17.1701Z" fill="url(#paint0_linear_3411_505)"/>
<path d="M31.6751 36.3258L26.998 31.5998V31.2679L31.6751 26.5305H31.7777L37.3788 29.7803C38.9758 30.6843 38.9758 32.1719 37.3788 33.0874L31.8006 36.2686L31.6751 36.3258Z" fill="url(#paint1_linear_3411_505)"/>
<path d="M31.8118 36.2572L26.9978 31.4282L12.7842 45.6863C13.4572 46.2814 14.4497 46.3042 15.1569 45.755L31.8118 36.2572Z" fill="url(#paint2_linear_3411_505)"/>
<path d="M31.8119 26.5993L15.1457 17.1015C14.4384 16.5523 13.446 16.5751 12.7729 17.1702L26.998 31.4283L31.8119 26.5993Z" fill="url(#paint3_linear_3411_505)"/>
<path opacity="0.2" d="M31.6749 36.1542L15.1455 45.5948C14.4725 46.0983 13.5371 46.0983 12.864 45.5948L12.7842 45.6749L12.864 45.755C13.5371 46.2699 14.4725 46.2699 15.1455 45.755L31.8118 36.2572L31.6749 36.1542Z" fill="black"/>
<path opacity="0.12" d="M12.7847 45.5268C12.4082 45.0803 12.2257 44.508 12.2599 43.9242V44.0959C12.2257 44.6797 12.4082 45.252 12.7847 45.6985L12.8645 45.6183L12.7847 45.5268Z" fill="black"/>
<path opacity="0.12" d="M37.3785 32.9158L31.6748 36.1542L31.7775 36.2572L37.3785 33.076C38.0287 32.7671 38.4622 32.1377 38.5192 31.4282C38.3937 32.069 37.9717 32.6183 37.3785 32.9158Z" fill="black"/>
<path opacity="0.25" d="M15.1455 17.2617L37.3785 29.9407C37.9717 30.2382 38.3938 30.7874 38.5193 31.4283C38.4622 30.7188 38.0288 30.0894 37.3785 29.7804L15.1455 17.1015C13.5485 16.1975 12.2822 16.9527 12.2822 18.7836V18.9553C12.2822 17.1129 13.5599 16.3577 15.1455 17.2617Z" fill="white"/>
<path d="M293 9.49976V7.99976L295.5 9.5L293 9.49976Z" fill="#C2B510"/>
<path d="M333 35.5V33L335.5 35.5002L333 35.5Z" fill="#C2B510"/>
<path d="M327.81 54.4035H184.492C181.514 54.4035 179 51.9561 179 48.9841V14.1349C179 11.1599 181.514 8.63293 184.492 8.63293H327.81C330.785 8.63293 333 11.1599 333 14.1349V48.9841C333 51.9592 330.709 54.4035 327.734 54.4035H327.81Z" fill="#B1B3B6"/>
<path d="M332.189 48.9841C332.189 51.3998 330.232 53.3546 327.811 53.3546H184.492C182.071 53.3546 180.107 51.3998 180.107 48.9841V14.1349C180.107 11.7224 182.074 9.75806 184.492 9.75806H327.811C330.232 9.75806 332.189 11.7224 332.189 14.1349V48.9841Z" fill="black"/>
<path d="M213.504 31.318C213.469 27.6405 216.517 25.851 216.657 25.7684C214.932 23.2542 212.257 22.9109 211.315 22.8823C209.068 22.6471 206.889 24.2268 205.743 24.2268C204.576 24.2268 202.813 22.9077 200.913 22.9458C198.47 22.984 196.182 24.3984 194.928 26.5916C192.338 31.0669 194.27 37.6465 196.748 41.2636C197.989 43.034 199.437 45.0142 201.337 44.9443C203.192 44.868 203.885 43.7619 206.125 43.7619C208.343 43.7619 208.995 44.9443 210.93 44.8998C212.922 44.868 214.175 43.1198 215.372 41.3303C216.803 39.2993 217.379 37.3 217.405 37.1951C217.363 37.1824 213.542 35.7266 213.504 31.318Z" fill="white"/>
<path d="M209.848 20.5015C210.847 19.2524 211.528 17.5582 211.34 15.8354C209.896 15.899 208.088 16.8335 207.048 18.0541C206.128 19.1284 205.304 20.8893 205.517 22.5485C207.14 22.6693 208.807 21.7316 209.848 20.5015Z" fill="white"/>
<path d="M235.923 38.3584L234.637 34.3916C234.5 33.9879 234.246 33.0344 233.87 31.5309H233.826C233.676 32.1794 233.434 33.1297 233.104 34.3916L231.84 38.3584H235.923ZM240.368 44.69H237.774L236.355 40.2273H231.417L230.065 44.69H227.539L232.432 29.5062H235.455L240.368 44.69Z" fill="white"/>
<path d="M250.47 39.169C250.47 38.1042 250.228 37.2237 249.747 36.534C249.219 35.8125 248.513 35.4533 247.628 35.4533C247.027 35.4533 246.483 35.6535 245.993 36.0509C245.503 36.4482 245.185 36.9695 245.035 37.6179C244.959 37.9198 244.921 38.1646 244.921 38.3616V40.1861C244.921 40.9807 245.166 41.6546 245.652 42.2013C246.142 42.7512 246.776 43.0245 247.558 43.0245C248.475 43.0245 249.191 42.6717 249.7 41.9661C250.215 41.2573 250.47 40.326 250.47 39.169ZM252.952 39.08C252.952 40.9426 252.449 42.4143 251.44 43.495C250.537 44.458 249.417 44.938 248.08 44.938C246.636 44.938 245.598 44.4199 244.968 43.3837H244.924V49.1495H242.487V37.3477C242.487 36.178 242.458 34.9765 242.397 33.7433H244.539L244.676 35.4787H244.72C245.532 34.1724 246.766 33.5176 248.417 33.5176C249.709 33.5176 250.788 34.0293 251.653 35.0496C252.519 36.0699 252.952 37.4144 252.952 39.08Z" fill="white"/>
<path d="M263.076 39.169C263.076 38.1042 262.835 37.2237 262.354 36.534C261.826 35.8125 261.123 35.4533 260.235 35.4533C259.634 35.4533 259.09 35.6535 258.6 36.0509C258.11 36.4482 257.791 36.9695 257.642 37.6179C257.569 37.9198 257.531 38.1646 257.531 38.3616V40.1861C257.531 40.9807 257.776 41.6546 258.262 42.2013C258.752 42.7512 259.389 43.0245 260.171 43.0245C261.088 43.0245 261.801 42.6717 262.313 41.9661C262.822 41.2573 263.076 40.326 263.076 39.169ZM265.558 39.08C265.558 40.9426 265.052 42.4143 264.047 43.495C263.146 44.458 262.026 44.938 260.687 44.938C259.242 44.938 258.205 44.4199 257.575 43.3837H257.531V49.1495H255.093V37.3477C255.093 36.178 255.061 34.9765 255.001 33.7433H257.142L257.279 35.4787H257.324C258.135 34.1724 259.366 33.5176 261.021 33.5176C262.313 33.5176 263.391 34.0293 264.257 35.0496C265.126 36.0699 265.558 37.4144 265.558 39.08Z" fill="white"/>
<path d="M279.654 40.4339C279.654 41.7244 279.205 42.7765 278.304 43.587C277.315 44.4738 275.934 44.9156 274.165 44.9156C272.529 44.9156 271.215 44.5978 270.223 43.9684L270.789 41.9405C271.858 42.5889 273.032 42.91 274.308 42.91C275.224 42.91 275.937 42.7034 276.453 42.2902C276.965 41.877 277.219 41.3239 277.219 40.631C277.219 40.0144 277.009 39.4963 276.589 39.0735C276.169 38.654 275.469 38.263 274.493 37.8975C271.829 36.9058 270.499 35.4532 270.499 33.5429C270.499 32.2938 270.964 31.2703 271.899 30.4725C272.829 29.6747 274.069 29.2742 275.622 29.2742C277.006 29.2742 278.155 29.5157 279.071 29.9957L278.464 31.9791C277.608 31.515 276.64 31.2798 275.555 31.2798C274.699 31.2798 274.028 31.4896 273.551 31.9123C273.144 32.2874 272.943 32.7451 272.943 33.2854C272.943 33.8862 273.175 34.382 273.64 34.773C274.047 35.1353 274.782 35.5231 275.851 35.9459C277.159 36.4735 278.12 37.0869 278.737 37.7926C279.345 38.5014 279.654 39.3818 279.654 40.4339Z" fill="white"/>
<path d="M287.704 35.5644H285.022V40.8821C285.022 42.233 285.492 42.91 286.441 42.91C286.877 42.91 287.236 42.8718 287.522 42.7956L287.589 44.6423C287.112 44.8234 286.479 44.9124 285.696 44.9124C284.735 44.9124 283.981 44.6168 283.44 44.032C282.899 43.4472 282.629 42.4618 282.629 41.0792V35.5644H281.028V33.74H282.629V31.7343L285.022 31.0128V33.7368H287.704V35.5644Z" fill="white"/>
<path d="M297.291 39.2039C297.291 38.1932 297.074 37.3286 296.638 36.6039C296.126 35.7298 295.397 35.2944 294.449 35.2944C293.469 35.2944 292.728 35.7298 292.216 36.6039C291.78 37.3254 291.563 38.2059 291.563 39.2484C291.563 40.2592 291.78 41.1238 292.216 41.8453C292.744 42.7194 293.479 43.1548 294.427 43.1548C295.359 43.1548 296.088 42.7098 296.613 41.823C297.065 41.0888 297.291 40.2147 297.291 39.2039ZM299.817 39.1245C299.817 40.8059 299.333 42.1886 298.372 43.2693C297.364 44.3817 296.024 44.938 294.357 44.938C292.747 44.938 291.468 44.404 290.513 43.3392C289.559 42.2712 289.082 40.9267 289.082 39.3057C289.082 37.6083 289.572 36.2193 290.558 35.1386C291.541 34.0548 292.871 33.5144 294.538 33.5144C296.145 33.5144 297.44 34.0484 298.42 35.1164C299.352 36.1526 299.817 37.4907 299.817 39.1245Z" fill="white"/>
<path d="M307.733 35.8824C307.491 35.8379 307.234 35.8157 306.966 35.8157C306.11 35.8157 305.449 36.1399 304.981 36.7851C304.574 37.3541 304.373 38.0756 304.373 38.9465V44.6901H301.939L301.961 37.1888C301.961 35.9269 301.93 34.7763 301.869 33.7401H303.991L304.08 35.8347H304.147C304.405 35.1132 304.809 34.5347 305.366 34.0993C305.91 33.7083 306.495 33.5144 307.129 33.5144C307.355 33.5144 307.555 33.5303 307.736 33.5589V35.8824" fill="white"/>
<path d="M316.302 38.0659C316.318 37.3444 316.159 36.7214 315.831 36.197C315.408 35.5231 314.762 35.183 313.89 35.183C313.095 35.183 312.445 35.5136 311.952 36.1747C311.545 36.6992 311.306 37.3317 311.23 38.0659H316.302ZM318.625 38.6985C318.625 39.1339 318.596 39.5026 318.535 39.8014H311.23C311.259 40.8853 311.612 41.7085 312.29 42.2806C312.904 42.7924 313.702 43.0467 314.679 43.0467C315.761 43.0467 316.747 42.8718 317.635 42.5286L318.017 44.2195C316.98 44.6709 315.755 44.8965 314.342 44.8965C312.643 44.8965 311.306 44.3975 310.336 43.3963C309.369 42.3982 308.882 41.0569 308.882 39.3755C308.882 37.7227 309.334 36.3495 310.234 35.253C311.182 34.0801 312.458 33.4952 314.068 33.4952C315.646 33.4952 316.843 34.0801 317.654 35.253C318.3 36.1811 318.625 37.3317 318.625 38.6985Z" fill="white"/>
<path d="M233.855 20.1964C233.855 19.3255 233.622 18.658 233.161 18.1939C232.7 17.7299 232.025 17.4947 231.137 17.4947C230.759 17.4947 230.437 17.5201 230.173 17.5741V23.1524C230.32 23.1747 230.59 23.1842 230.981 23.1842C231.898 23.1842 232.604 22.9299 233.104 22.4214C233.603 21.9128 233.855 21.1722 233.855 20.1964ZM235.118 20.1646C235.118 21.5091 234.714 22.5199 233.909 23.1969C233.164 23.8231 232.101 24.1378 230.73 24.1378C230.049 24.1378 229.467 24.1092 228.98 24.0488V16.7096C229.616 16.6079 230.304 16.557 231.042 16.557C232.35 16.557 233.336 16.8399 234.001 17.4089C234.745 18.0477 235.118 18.9695 235.118 20.1646Z" fill="white"/>
<path d="M240.568 21.3756C240.568 20.8797 240.46 20.4538 240.246 20.0978C239.995 19.6687 239.639 19.4526 239.171 19.4526C238.69 19.4526 238.325 19.6687 238.073 20.0978C237.86 20.4538 237.752 20.8861 237.752 21.3946C237.752 21.8905 237.86 22.3164 238.073 22.6724C238.334 23.1015 238.694 23.3145 239.158 23.3145C239.616 23.3145 239.976 23.0952 240.234 22.6597C240.456 22.3005 240.568 21.8714 240.568 21.3756ZM241.809 21.3374C241.809 22.1638 241.573 22.8409 241.099 23.3749C240.606 23.9216 239.947 24.1949 239.126 24.1949C238.334 24.1949 237.707 23.9343 237.236 23.4098C236.769 22.8854 236.533 22.2242 236.533 21.4296C236.533 20.5968 236.775 19.9135 237.259 19.3826C237.742 18.8518 238.395 18.5848 239.215 18.5848C240.005 18.5848 240.641 18.8455 241.121 19.3699C241.58 19.8753 241.809 20.5333 241.809 21.3374Z" fill="white"/>
<path d="M250.785 18.6897L249.102 24.0709H248.004L247.304 21.7347C247.126 21.153 246.983 20.5714 246.872 19.9992H246.849C246.747 20.5905 246.601 21.1689 246.417 21.7347L245.675 24.0709H244.568L242.983 18.6897H244.215L244.822 21.2452C244.969 21.8523 245.093 22.4245 245.188 22.9712H245.211C245.3 22.523 245.446 21.9509 245.653 21.2548L246.417 18.6865H247.39L248.122 21.2007C248.3 21.8142 248.443 22.4054 248.555 22.9712H248.59C248.672 22.4181 248.793 21.8269 248.956 21.2007L249.608 18.6865H250.785" fill="white"/>
<path d="M256.989 24.071H255.793V20.991C255.793 20.0406 255.43 19.567 254.708 19.567C254.351 19.567 254.065 19.6973 253.842 19.958C253.623 20.2186 253.511 20.5269 253.511 20.8797V24.071H252.315V20.2281C252.315 19.7577 252.299 19.2428 252.271 18.6897H253.321L253.378 19.5289H253.413C253.553 19.2682 253.76 19.0521 254.033 18.8805C254.358 18.6802 254.72 18.5785 255.118 18.5785C255.621 18.5785 256.038 18.7406 256.372 19.0648C256.785 19.4621 256.992 20.0565 256.992 20.848V24.071" fill="white"/>
<path d="M260.289 24.071H259.093V16.2233H260.289V24.071Z" fill="white"/>
<path d="M266.096 21.3756C266.096 20.8797 265.988 20.4538 265.774 20.0978C265.523 19.6687 265.167 19.4526 264.702 19.4526C264.219 19.4526 263.856 19.6687 263.604 20.0978C263.391 20.4538 263.283 20.8861 263.283 21.3946C263.283 21.8905 263.391 22.3164 263.604 22.6724C263.862 23.1015 264.225 23.3145 264.689 23.3145C265.148 23.3145 265.504 23.0952 265.762 22.6597C265.988 22.3005 266.096 21.8714 266.096 21.3756ZM267.34 21.3374C267.34 22.1638 267.101 22.8409 266.63 23.3749C266.134 23.9216 265.479 24.1949 264.658 24.1949C263.865 24.1949 263.239 23.9343 262.768 23.4098C262.297 22.8854 262.064 22.2242 262.064 21.4296C262.064 20.5968 262.306 19.9135 262.79 19.3826C263.274 18.8518 263.926 18.5848 264.744 18.5848C265.536 18.5848 266.169 18.8455 266.653 19.3699C267.108 19.8753 267.34 20.5333 267.34 21.3374Z" fill="white"/>
<path d="M271.89 22.2212V21.3916C270.57 21.3693 269.911 21.7317 269.911 22.4754C269.911 22.7551 269.984 22.9649 270.14 23.1048C270.296 23.2446 270.49 23.3146 270.725 23.3146C270.99 23.3146 271.235 23.2319 271.457 23.0666C271.683 22.9014 271.82 22.6884 271.871 22.4309C271.884 22.3737 271.89 22.3038 271.89 22.2212ZM273.131 24.071H272.055L271.966 23.4512H271.931C271.562 23.9471 271.04 24.195 270.36 24.195C269.851 24.195 269.44 24.0329 269.131 23.7055C268.851 23.4099 268.711 23.0476 268.711 22.6089C268.711 21.951 268.985 21.452 269.536 21.1023C270.086 20.7559 270.859 20.5874 271.858 20.5938V20.4952C271.858 19.7864 271.486 19.4336 270.741 19.4336C270.21 19.4336 269.742 19.5671 269.338 19.8309L269.093 19.0458C269.593 18.7375 270.21 18.5818 270.942 18.5818C272.348 18.5818 273.055 19.3224 273.055 20.8067V22.7869C273.055 23.3241 273.08 23.7532 273.131 24.071Z" fill="white"/>
<path d="M278.692 21.8014V20.9051C278.692 20.7493 278.68 20.6254 278.657 20.53C278.591 20.2408 278.447 20.0024 278.225 19.8053C278.002 19.6114 277.735 19.5129 277.423 19.5129C276.977 19.5129 276.627 19.6877 276.37 20.0437C276.115 20.3965 275.985 20.8511 275.985 21.4041C275.985 21.9349 276.109 22.3672 276.354 22.6978C276.611 23.0506 276.961 23.2286 277.401 23.2286C277.792 23.2286 278.107 23.0824 278.346 22.7868C278.581 22.5134 278.692 22.186 278.692 21.8014ZM279.933 24.0709H278.871L278.813 23.2063H278.778C278.438 23.8643 277.862 24.1917 277.051 24.1917C276.401 24.1917 275.861 23.9374 275.434 23.4288C275.005 22.9203 274.792 22.2591 274.792 21.4486C274.792 20.5777 275.024 19.8721 275.492 19.3349C275.943 18.8327 276.497 18.5816 277.156 18.5816C277.878 18.5816 278.384 18.8263 278.673 19.3127H278.696V16.2263H279.895V22.6247C279.892 23.1459 279.905 23.6291 279.933 24.0709Z" fill="white"/>
<path d="M288.932 21.3756C288.932 20.8797 288.824 20.4538 288.611 20.0978C288.359 19.6687 288.003 19.4526 287.535 19.4526C287.055 19.4526 286.689 19.6687 286.437 20.0978C286.224 20.4538 286.116 20.8861 286.116 21.3946C286.116 21.8905 286.224 22.3164 286.437 22.6724C286.698 23.1015 287.058 23.3145 287.526 23.3145C287.984 23.3145 288.343 23.0952 288.601 22.6597C288.821 22.3005 288.932 21.8714 288.932 21.3756ZM290.173 21.3374C290.173 22.1638 289.937 22.8409 289.463 23.3749C288.967 23.9216 288.312 24.1949 287.491 24.1949C286.702 24.1949 286.072 23.9343 285.601 23.4098C285.133 22.8854 284.897 22.2242 284.897 21.4296C284.897 20.5968 285.139 19.9135 285.623 19.3826C286.107 18.8518 286.759 18.5848 287.58 18.5848C288.369 18.5848 289.005 18.8455 289.482 19.3699C289.944 19.8753 290.173 20.5333 290.173 21.3374Z" fill="white"/>
<path d="M296.61 24.071H295.413V20.991C295.413 20.0406 295.051 19.567 294.325 19.567C293.972 19.567 293.682 19.6973 293.463 19.958C293.243 20.2186 293.129 20.5269 293.129 20.8797V24.071H291.932V20.2281C291.932 19.7577 291.92 19.2428 291.891 18.6897H292.941L292.998 19.5289H293.033C293.173 19.2682 293.38 19.0521 293.654 18.8805C293.978 18.6802 294.341 18.5785 294.739 18.5785C295.242 18.5785 295.658 18.7406 295.989 19.0648C296.403 19.4621 296.61 20.0565 296.61 20.848V24.071Z" fill="white"/>
<path d="M304.666 19.5861H303.348V22.1988C303.348 22.8631 303.581 23.1969 304.045 23.1969C304.262 23.1969 304.437 23.1778 304.58 23.1396L304.612 24.0487C304.373 24.1377 304.064 24.1822 303.679 24.1822C303.208 24.1822 302.839 24.0392 302.572 23.7499C302.305 23.4607 302.171 22.9775 302.171 22.3005V19.5892H301.385V18.6929H302.171V17.7076L303.345 17.3547V18.6929H304.663V19.5861" fill="white"/>
<path d="M311.004 24.071H309.805V21.0133C309.805 20.047 309.442 19.5671 308.72 19.5671C308.163 19.5671 307.784 19.8468 307.577 20.4062C307.542 20.5238 307.52 20.6668 307.52 20.8385V24.0742H306.324V16.2233H307.52V19.4653H307.546C307.921 18.8773 308.462 18.5817 309.162 18.5817C309.658 18.5817 310.069 18.7438 310.393 19.068C310.801 19.4749 311.001 20.0756 311.001 20.8734V24.071" fill="white"/>
<path d="M316.397 20.8162C316.407 20.4634 316.33 20.1551 316.165 19.8976C315.958 19.5639 315.64 19.3986 315.21 19.3986C314.819 19.3986 314.501 19.5607 314.259 19.8849C314.062 20.1423 313.941 20.4538 313.903 20.8162H316.397ZM317.539 21.1245C317.539 21.3406 317.523 21.5186 317.495 21.668H313.906C313.922 22.1988 314.093 22.6057 314.424 22.8854C314.73 23.1365 315.121 23.2605 315.602 23.2605C316.133 23.2605 316.617 23.1747 317.053 23.0062L317.24 23.8358C316.728 24.0583 316.13 24.1664 315.433 24.1664C314.599 24.1664 313.944 23.9216 313.467 23.4289C312.989 22.9394 312.754 22.2783 312.754 21.4551C312.754 20.6445 312.977 19.9675 313.419 19.4272C313.883 18.8519 314.51 18.5658 315.303 18.5658C316.076 18.5658 316.668 18.855 317.062 19.4272C317.38 19.8912 317.539 20.457 317.539 21.1245Z" fill="white"/>
<path d="M310 7.9054L335.5 24L335.5 35.5L293 7.9999L310 7.9054Z" fill="#F8E71C"/>
<path d="M309.005 11.0383C308.86 10.9474 308.714 10.8922 308.567 10.8727C308.421 10.8541 308.277 10.8698 308.137 10.9198C307.997 10.9683 307.862 11.05 307.732 11.1646C307.604 11.278 307.485 11.4222 307.375 11.5973C307.228 11.8318 307.134 12.0546 307.094 12.2658C307.055 12.4756 307.074 12.6684 307.152 12.8442C307.231 13.0187 307.374 13.1709 307.581 13.3007C307.709 13.3813 307.841 13.4472 307.978 13.4986C308.115 13.5499 308.262 13.5949 308.418 13.6335L308.153 14.0555C308.001 14.0268 307.854 13.984 307.715 13.9273C307.576 13.8706 307.424 13.7907 307.26 13.6877C306.952 13.4938 306.735 13.2686 306.612 13.0122C306.49 12.7567 306.451 12.4808 306.497 12.1846C306.544 11.8892 306.665 11.585 306.861 11.2719C307.005 11.043 307.168 10.8533 307.351 10.7028C307.533 10.5523 307.729 10.4462 307.936 10.3845C308.145 10.3214 308.361 10.3084 308.586 10.3457C308.813 10.3823 309.041 10.473 309.271 10.6176C309.423 10.7128 309.561 10.8235 309.685 10.9498C309.812 11.0755 309.919 11.2088 310.005 11.3496L309.575 11.6501C309.501 11.5347 309.418 11.4231 309.327 11.3154C309.235 11.2077 309.127 11.1153 309.005 11.0383ZM311.439 14.6518C311.32 14.8422 311.189 14.9955 311.047 15.1119C310.905 15.2283 310.754 15.3076 310.595 15.35C310.437 15.3909 310.274 15.3963 310.107 15.3661C309.94 15.3345 309.773 15.2659 309.605 15.1603C309.448 15.0616 309.32 14.9449 309.222 14.8103C309.125 14.6742 309.059 14.5256 309.026 14.3643C308.995 14.2025 308.999 14.0314 309.039 13.851C309.08 13.6705 309.159 13.4851 309.279 13.2948C309.437 13.0424 309.614 12.856 309.811 12.7354C310.01 12.6143 310.219 12.5586 310.44 12.5683C310.661 12.5781 310.883 12.6535 311.108 12.7946C311.319 12.9271 311.476 13.0902 311.579 13.2839C311.682 13.4775 311.724 13.6912 311.705 13.9249C311.685 14.1585 311.596 14.4009 311.439 14.6518ZM309.779 13.6091C309.674 13.7759 309.605 13.9312 309.57 14.0749C309.537 14.2195 309.544 14.3503 309.589 14.4675C309.636 14.5832 309.727 14.6835 309.862 14.7683C309.997 14.8532 310.127 14.8914 310.251 14.883C310.376 14.8732 310.496 14.8216 310.61 14.7281C310.725 14.6346 310.834 14.5045 310.939 14.3376C311.043 14.1707 311.112 14.0168 311.145 13.8759C311.178 13.7335 311.171 13.6052 311.124 13.4908C311.077 13.3751 310.986 13.2744 310.849 13.1887C310.648 13.0623 310.459 13.0377 310.282 13.1148C310.105 13.192 309.937 13.3567 309.779 13.6091ZM315.325 15.4438C315.582 15.6048 315.733 15.7922 315.78 16.006C315.828 16.2206 315.76 16.4741 315.577 16.7665L314.638 18.2641L314.152 17.9589L315.036 16.5482C315.145 16.3744 315.194 16.2222 315.181 16.0915C315.169 15.9608 315.094 15.8522 314.956 15.7656C314.763 15.6444 314.585 15.619 314.422 15.6895C314.261 15.7594 314.107 15.9116 313.96 16.146L313.199 17.3603L312.713 17.0551L313.597 15.6444C313.67 15.5285 313.715 15.4225 313.734 15.3262C313.754 15.2294 313.746 15.1426 313.709 15.0659C313.674 14.9879 313.61 14.9198 313.517 14.8618C313.384 14.7778 313.258 14.7411 313.14 14.7515C313.023 14.7629 312.911 14.817 312.802 14.914C312.694 15.0096 312.586 15.1428 312.479 15.3138L311.762 16.4578L311.276 16.1526L312.712 13.8627L313.09 14.1003L312.965 14.4514L312.992 14.4683C313.089 14.4177 313.188 14.3886 313.289 14.3808C313.392 14.3726 313.494 14.3829 313.595 14.4117C313.697 14.4392 313.794 14.482 313.886 14.54C314.057 14.6473 314.182 14.7681 314.261 14.9024C314.341 15.0353 314.372 15.1813 314.353 15.3404L314.39 15.3637C314.539 15.2846 314.697 15.2557 314.862 15.2769C315.028 15.2981 315.182 15.3537 315.325 15.4438ZM317.237 16.7053L315.802 18.9952L315.316 18.6901L316.751 16.4001L317.237 16.7053ZM317.547 15.6776C317.622 15.7243 317.673 15.7846 317.702 15.8584C317.732 15.933 317.716 16.0192 317.655 16.1172C317.594 16.2137 317.524 16.2653 317.443 16.2721C317.364 16.2783 317.287 16.258 317.213 16.2113C317.135 16.1628 317.083 16.1017 317.054 16.0279C317.027 15.9537 317.044 15.8683 317.105 15.7717C317.166 15.6738 317.236 15.6213 317.313 15.6142C317.392 15.608 317.47 15.6291 317.547 15.6776ZM319.154 17.8488C319.412 18.0107 319.57 18.2035 319.63 18.4273C319.692 18.6506 319.63 18.9091 319.446 19.2029L318.51 20.6964L318.024 20.3912L318.903 18.9887C319.015 18.8108 319.062 18.6548 319.044 18.5207C319.027 18.3851 318.942 18.2693 318.789 18.1732C318.567 18.0338 318.37 18.0051 318.198 18.0871C318.027 18.17 317.86 18.341 317.698 18.6003L316.984 19.738L316.499 19.4329L317.934 17.1429L318.312 17.3806L318.186 17.7337L318.213 17.7506C318.313 17.7018 318.415 17.6748 318.52 17.6697C318.627 17.664 318.735 17.6766 318.842 17.7076C318.951 17.7394 319.055 17.7865 319.154 17.8488ZM319.206 22.5517C318.895 22.3569 318.693 22.1517 318.597 21.9361C318.502 21.7206 318.517 21.5121 318.644 21.3108C318.732 21.1701 318.851 21.0785 319 21.036C319.149 20.9949 319.317 21.0072 319.504 21.073C319.46 21.0064 319.433 20.9299 319.424 20.8434C319.417 20.7564 319.436 20.6771 319.481 20.6054C319.534 20.5199 319.604 20.4619 319.69 20.4316C319.777 20.4012 319.886 20.388 320.018 20.3921C319.93 20.2657 319.885 20.1224 319.884 19.962C319.885 19.8012 319.934 19.6428 320.032 19.487C320.135 19.3215 320.259 19.2029 320.402 19.1312C320.545 19.0582 320.704 19.0337 320.877 19.0579C321.051 19.0807 321.234 19.1522 321.425 19.2726C321.467 19.2985 321.51 19.3294 321.555 19.3653C321.602 19.4006 321.644 19.4346 321.681 19.4675C321.72 19.4999 321.748 19.5264 321.766 19.5472L322.558 20.0445L322.388 20.3155L321.954 20.1438C321.958 20.2196 321.95 20.2982 321.93 20.3796C321.911 20.4596 321.876 20.539 321.827 20.6176C321.678 20.8548 321.479 20.9901 321.23 21.0236C320.982 21.0566 320.715 20.9831 320.429 20.803C320.361 20.7569 320.298 20.7094 320.238 20.6605C320.17 20.6596 320.111 20.6696 320.061 20.6904C320.012 20.7098 319.974 20.7423 319.945 20.7878C319.922 20.825 319.916 20.8636 319.928 20.9035C319.94 20.942 319.968 20.9828 320.012 21.0258C320.058 21.0698 320.118 21.1151 320.192 21.1619L320.587 21.4099C320.838 21.5675 320.996 21.7409 321.062 21.9302C321.128 22.1195 321.096 22.3169 320.967 22.5224C320.804 22.783 320.571 22.9161 320.267 22.9217C319.963 22.9287 319.609 22.8054 319.206 22.5517ZM319.438 22.2221C319.608 22.3286 319.761 22.4016 319.897 22.4413C320.034 22.4809 320.151 22.4883 320.249 22.4634C320.347 22.44 320.422 22.3862 320.474 22.3021C320.521 22.2276 320.538 22.1587 320.526 22.0953C320.514 22.032 320.475 21.9693 320.41 21.9074C320.346 21.8455 320.258 21.7799 320.148 21.7106L319.788 21.4847C319.698 21.4284 319.611 21.3924 319.524 21.3767C319.437 21.3624 319.358 21.37 319.285 21.3995C319.214 21.4299 319.155 21.4831 319.108 21.5589C319.042 21.6637 319.037 21.7734 319.094 21.8879C319.153 22.0034 319.267 22.1147 319.438 22.2221ZM320.651 20.4987C320.793 20.5879 320.923 20.6155 321.04 20.5816C321.158 20.5462 321.262 20.4576 321.351 20.3155C321.448 20.1611 321.484 20.0227 321.461 19.9005C321.439 19.7791 321.359 19.6747 321.219 19.5872C321.083 19.5015 320.954 19.4755 320.833 19.5091C320.714 19.5435 320.606 19.638 320.509 19.7924C320.421 19.9317 320.388 20.0627 320.409 20.1855C320.433 20.3077 320.513 20.4121 320.651 20.4987ZM324.587 23.6022C324.492 23.7525 324.376 23.8564 324.238 23.914C324.101 23.9715 323.944 23.983 323.77 23.9485C323.598 23.9135 323.411 23.8323 323.208 23.705C323.048 23.6046 322.918 23.5063 322.817 23.4102C322.716 23.3162 322.63 23.2138 322.557 23.1029L322.82 22.6829C322.897 22.8024 322.991 22.9231 323.103 23.0452C323.216 23.1681 323.333 23.2677 323.455 23.3439C323.615 23.4443 323.745 23.4918 323.847 23.4863C323.949 23.4794 324.026 23.4339 324.079 23.3498C324.11 23.3001 324.123 23.2469 324.119 23.1901C324.116 23.1328 324.089 23.0592 324.038 22.9694C323.989 22.879 323.909 22.7579 323.799 22.6059C323.691 22.4571 323.605 22.3226 323.542 22.2023C323.479 22.0821 323.448 21.9652 323.448 21.8518C323.449 21.7371 323.489 21.6155 323.57 21.4873C323.697 21.2846 323.873 21.181 324.099 21.1766C324.326 21.1717 324.573 21.2524 324.837 21.4186C324.978 21.5069 325.101 21.6045 325.207 21.7114C325.315 21.8178 325.412 21.9355 325.499 22.0646L325.116 22.3346C325.041 22.2242 324.96 22.1216 324.874 22.0268C324.79 21.9316 324.694 21.8502 324.586 21.7826C324.461 21.7039 324.353 21.663 324.262 21.6601C324.173 21.658 324.106 21.6928 324.062 21.7645C324.028 21.8183 324.015 21.8738 324.023 21.9309C324.032 21.9881 324.063 22.0595 324.117 22.1452C324.172 22.2318 324.252 22.3464 324.357 22.489C324.46 22.6271 324.543 22.7563 324.606 22.8765C324.672 22.9963 324.705 23.1144 324.707 23.2309C324.709 23.3474 324.669 23.4712 324.587 23.6022ZM327.449 24.7082C327.33 24.8985 327.199 25.0518 327.057 25.1682C326.915 25.2846 326.764 25.364 326.605 25.4063C326.447 25.4472 326.284 25.4526 326.117 25.4224C325.95 25.3908 325.783 25.3222 325.615 25.2166C325.457 25.1179 325.33 25.0013 325.232 24.8666C325.135 24.7306 325.069 24.5819 325.036 24.4207C325.005 24.2589 325.009 24.0877 325.049 23.9073C325.089 23.7268 325.169 23.5415 325.289 23.3511C325.447 23.0988 325.624 22.9123 325.821 22.7917C326.02 22.6706 326.229 22.6149 326.45 22.6247C326.67 22.6344 326.893 22.7099 327.118 22.851C327.329 22.9834 327.486 23.1465 327.589 23.3402C327.692 23.5339 327.734 23.7476 327.714 23.9812C327.695 24.2149 327.606 24.4572 327.449 24.7082ZM325.789 23.6654C325.684 23.8323 325.615 23.9876 325.58 24.1313C325.547 24.2758 325.554 24.4067 325.599 24.5238C325.646 24.6395 325.737 24.7398 325.872 24.8246C326.007 24.9095 326.137 24.9477 326.261 24.9393C326.386 24.9296 326.506 24.8779 326.62 24.7845C326.735 24.691 326.844 24.5608 326.949 24.3939C327.053 24.227 327.122 24.0731 327.154 23.9322C327.188 23.7899 327.181 23.6615 327.134 23.5472C327.087 23.4314 326.996 23.3307 326.859 23.245C326.658 23.1186 326.469 23.094 326.292 23.1711C326.115 23.2483 325.947 23.413 325.789 23.6654ZM330.033 26.3314C329.914 26.5217 329.783 26.6751 329.641 26.7915C329.499 26.9079 329.348 26.9872 329.189 27.0295C329.031 27.0705 328.868 27.0758 328.701 27.0456C328.534 27.0141 328.367 26.9455 328.199 26.8399C328.042 26.7412 327.914 26.6245 327.816 26.4898C327.719 26.3538 327.653 26.2052 327.62 26.0439C327.589 25.8821 327.593 25.711 327.634 25.5305C327.674 25.3501 327.753 25.1647 327.873 24.9744C328.031 24.722 328.208 24.5355 328.405 24.4149C328.604 24.2938 328.814 24.2382 329.034 24.2479C329.255 24.2577 329.477 24.3331 329.702 24.4742C329.913 24.6067 330.07 24.7697 330.173 24.9634C330.277 25.1571 330.318 25.3708 330.299 25.6045C330.279 25.8381 330.191 26.0804 330.033 26.3314ZM328.373 25.2886C328.268 25.4555 328.199 25.6108 328.165 25.7545C328.132 25.8991 328.138 26.0299 328.184 26.147C328.23 26.2628 328.321 26.363 328.456 26.4479C328.591 26.5327 328.721 26.571 328.845 26.5626C328.97 26.5528 329.09 26.5012 329.204 26.4077C329.319 26.3142 329.428 26.184 329.533 26.0172C329.637 25.8503 329.706 25.6964 329.739 25.5554C329.772 25.4131 329.765 25.2848 329.718 25.1704C329.671 25.0547 329.58 24.954 329.443 24.8683C329.242 24.7419 329.053 24.7172 328.876 24.7944C328.699 24.8715 328.531 25.0363 328.373 25.2886ZM332.526 26.2481C332.784 26.41 332.942 26.6028 333.002 26.8266C333.064 27.0499 333.002 27.3085 332.818 27.6022L331.882 29.0957L331.396 28.7905L332.275 27.388C332.387 27.2101 332.434 27.0541 332.416 26.92C332.399 26.7845 332.314 26.6686 332.161 26.5725C331.939 26.4332 331.742 26.4045 331.57 26.4865C331.399 26.5693 331.232 26.7404 331.069 26.9996L330.356 28.1373L329.87 27.8322L331.306 25.5423L331.684 25.7799L331.558 26.133L331.585 26.1499C331.685 26.1011 331.787 26.0741 331.892 26.069C331.999 26.0633 332.107 26.076 332.214 26.1069C332.323 26.1387 332.427 26.1858 332.526 26.2481Z" fill="#03174C"/>
<defs>
<linearGradient id="paint0_linear_3411_505" x1="25.7488" y1="18.5146" x2="6.54733" y2="37.6562" gradientUnits="userSpaceOnUse">
<stop stop-color="#00A0FF"/>
<stop offset="0.01" stop-color="#00A1FF"/>
<stop offset="0.26" stop-color="#00BEFF"/>
<stop offset="0.51" stop-color="#00D2FF"/>
<stop offset="0.76" stop-color="#00DFFF"/>
<stop offset="1" stop-color="#00E3FF"/>
</linearGradient>
<linearGradient id="paint1_linear_3411_505" x1="39.4663" y1="31.4281" x2="11.8719" y2="31.4281" gradientUnits="userSpaceOnUse">
<stop stop-color="#FFE000"/>
<stop offset="0.41" stop-color="#FFBD00"/>
<stop offset="0.78" stop-color="#FFA500"/>
<stop offset="1" stop-color="#FF9C00"/>
</linearGradient>
<linearGradient id="paint2_linear_3411_505" x1="29.1966" y1="34.0572" x2="3.15229" y2="60.0089" gradientUnits="userSpaceOnUse">
<stop stop-color="#FF3A44"/>
<stop offset="1" stop-color="#C31162"/>
</linearGradient>
<linearGradient id="paint3_linear_3411_505" x1="9.19958" y1="8.75093" x2="20.8257" y2="20.3408" gradientUnits="userSpaceOnUse">
<stop stop-color="#32A071"/>
<stop offset="0.07" stop-color="#2DA771"/>
<stop offset="0.48" stop-color="#15CF74"/>
<stop offset="0.8" stop-color="#06E775"/>
<stop offset="1" stop-color="#00F076"/>
</linearGradient>
</defs>
</svg>
