<svg width="110" height="71" viewBox="0 0 110 71" fill="none" xmlns="http://www.w3.org/2000/svg">
<path d="M35.5096 11.6885C35.5293 11.4463 35.5944 11.2623 35.7051 11.1365C35.8254 10.9972 35.9669 10.914 36.1297 10.8871C36.3042 10.8583 36.4727 10.9021 36.6353 11.0186C36.796 11.1234 36.8975 11.3037 36.9398 11.5596L36.9513 11.6293C36.956 12.5245 36.886 13.4381 36.7414 14.3699C36.6084 15.2998 36.4522 16.1977 36.2728 17.0636C36.1168 17.854 35.9578 18.6986 35.7958 19.5975C35.6454 20.4944 35.4486 21.3274 35.2054 22.0963C35.0559 22.348 34.8707 22.4921 34.6497 22.5286C34.359 22.5767 34.1053 22.4514 33.8887 22.1527C33.5233 21.5322 33.183 20.9553 32.8679 20.422C32.5644 19.8868 32.2695 19.3681 31.9834 18.8659C31.7089 18.3617 31.4296 17.8644 31.1454 17.3738C30.8728 16.8813 30.5809 16.38 30.2696 15.87C30.2031 16.3349 30.124 16.796 30.0323 17.2532C29.9523 17.7084 29.8665 18.1646 29.7748 18.6218C29.6324 19.3502 29.4832 20.1095 29.3271 20.8999C29.1827 21.6884 28.9957 22.4361 28.7662 23.143C28.6166 23.3947 28.4314 23.5388 28.2105 23.5753C27.9198 23.6234 27.6661 23.4981 27.4495 23.1994C27.0051 22.1738 26.5181 21.1792 25.9884 20.2155C25.4685 19.2382 24.9262 18.2706 24.3617 17.3127C24.0775 16.8221 23.7836 16.3092 23.4801 15.774C23.1863 15.2252 22.8701 14.722 22.5316 14.2643C22.4349 14.113 22.376 13.9734 22.3549 13.8455C22.3222 13.6478 22.3592 13.4744 22.466 13.3254C22.5728 13.1763 22.7192 13.0864 22.9052 13.0556C23.0215 13.0364 23.1426 13.0463 23.2685 13.0852C23.3944 13.1241 23.5154 13.2056 23.6315 13.3298C23.9874 13.8205 24.3268 14.3557 24.6496 14.9355C24.9821 15.5017 25.2992 16.0466 25.6008 16.5702C26.0339 17.3109 26.4379 18.0207 26.813 18.6993C27.1861 19.3664 27.5456 20.0596 27.8915 20.7789C27.9811 20.3818 28.0601 19.9924 28.1284 19.6108C28.1948 19.2175 28.268 18.8291 28.3479 18.4455C28.5117 17.63 28.6582 16.7815 28.7872 15.9C28.9162 15.0185 29.0074 14.1612 29.0608 13.3281C29.1872 13.0086 29.3841 12.8267 29.6516 12.7825C29.9074 12.7402 30.1437 12.8325 30.3604 13.0595C30.7432 13.713 31.097 14.3354 31.4218 14.9269C31.7562 15.5047 32.0781 16.0787 32.3874 16.6488C32.7064 17.2053 33.0186 17.757 33.324 18.3038C33.6295 18.8506 33.9543 19.4062 34.2985 19.9705C34.4134 19.5095 34.508 18.998 34.5824 18.4362C34.6665 17.8608 34.7543 17.3445 34.846 16.8874C35.0195 16.0583 35.1708 15.203 35.2998 14.3215C35.4386 13.4265 35.5085 12.5488 35.5096 11.6885ZM45.8227 18.1547C46.0515 18.0213 46.2589 17.9751 46.4448 18.016C46.6308 18.057 46.7712 18.1473 46.8659 18.2869C46.9723 18.4246 47.0118 18.5913 46.9844 18.787C46.9687 18.9807 46.8609 19.1598 46.6611 19.3242C46.3139 19.6086 45.9347 19.8804 45.5236 20.1395C45.1125 20.3986 44.6859 20.6005 44.244 20.7453C43.802 20.89 43.3533 20.9582 42.898 20.9499C42.4446 20.9532 41.9913 20.8489 41.5382 20.6371C40.994 20.3807 40.5469 19.9887 40.1969 19.4612C39.8449 18.922 39.6122 18.3453 39.4987 17.7309C39.3832 17.1049 39.3947 16.4877 39.533 15.8795C39.6811 15.2577 39.9821 14.7301 40.4361 14.2966C40.9114 13.8477 41.4486 13.4841 42.0477 13.2059C42.6449 12.916 43.2748 12.788 43.9374 12.8218C44.2629 12.8396 44.5728 12.9437 44.8671 13.134C45.1595 13.3126 45.4062 13.5406 45.6074 13.818C45.8183 14.0818 45.9574 14.3813 46.0248 14.7166C46.0902 15.0403 46.0598 15.3619 45.9334 15.6814C45.7896 16.0397 45.5508 16.3659 45.2171 16.66C44.8816 16.9425 44.5063 17.2016 44.0913 17.4375C43.686 17.6598 43.2711 17.8598 42.8465 18.0375C42.4336 18.2133 42.072 18.3746 41.7618 18.5215C41.628 18.5795 41.4953 18.6074 41.3635 18.6053C41.5994 18.9485 41.9062 19.2144 42.2838 19.4028C42.6711 19.5777 43.1177 19.6054 43.6236 19.486C44.0268 19.3954 44.4155 19.2177 44.7898 18.9527C45.1738 18.6742 45.5181 18.4082 45.8227 18.1547ZM41.8071 15.0018C41.4133 15.2939 41.1455 15.6607 41.0034 16.1023C40.8595 16.5323 40.824 16.9682 40.8971 17.4101C40.9689 17.3385 41.0484 17.2776 41.1357 17.2273C41.3354 17.1345 41.5351 17.0418 41.7348 16.949C41.9442 16.8427 42.1545 16.7423 42.3659 16.6476C42.4996 16.5896 42.6771 16.5065 42.8981 16.3983C43.1307 16.2882 43.3673 16.1654 43.6078 16.0301C43.8482 15.8948 44.0635 15.7517 44.2536 15.6008C44.4417 15.4383 44.5582 15.2757 44.603 15.113C44.5628 14.7254 44.4265 14.4791 44.1941 14.3742C43.9617 14.2692 43.7002 14.2408 43.4095 14.2889C43.1187 14.3369 42.8251 14.4392 42.5284 14.5958C42.2298 14.7407 41.9894 14.8761 41.8071 15.0018ZM63.3576 16.5817C63.3595 16.5933 63.3546 16.6001 63.343 16.602C63.4397 16.7533 63.4821 16.9016 63.4703 17.0469C63.4585 17.1922 63.407 17.3142 63.3158 17.4129C63.2382 17.5213 63.1199 17.6006 62.9609 17.6508C62.8136 17.699 62.6392 17.692 62.4378 17.6297C62.3158 17.5424 62.1987 17.4483 62.0864 17.3474C61.9723 17.2348 61.8697 17.1204 61.7788 17.004C61.5789 17.2401 61.3597 17.4675 61.121 17.6862C60.8805 17.8932 60.6275 18.0246 60.3619 18.0805C59.9006 18.1806 59.4423 18.2624 58.9868 18.3257C58.5314 18.3891 58.0762 18.309 57.6211 18.0856C57.2435 17.8972 56.9338 17.6497 56.692 17.3433C56.4618 17.0349 56.2869 16.6994 56.1672 16.3369C56.0572 15.9609 55.9987 15.5704 55.9914 15.1654C55.9842 14.7604 56.0206 14.3661 56.1005 13.9826C56.1317 13.8102 56.1814 13.6407 56.2494 13.4741C56.3174 13.3076 56.3845 13.1352 56.4506 12.957C56.5401 12.7033 56.6499 12.4642 56.78 12.2396C56.9082 12.0033 57.0644 11.7923 57.2488 11.6065C57.3826 11.4769 57.5107 11.3482 57.6329 11.2205C57.7668 11.0908 57.9016 10.967 58.0374 10.849C58.1305 10.7619 58.276 10.6662 58.4737 10.5618C58.6812 10.4439 58.9032 10.3415 59.1397 10.2546C59.386 10.1541 59.6312 10.0837 59.8754 10.0433C60.1312 10.0011 60.3521 10.0004 60.538 10.0413C60.697 9.99113 60.8607 10.0059 61.0292 10.0855C61.2093 10.1633 61.3593 10.3117 61.4791 10.5308C61.6098 11.3216 61.7357 12.1191 61.8568 12.9234C61.9778 13.7276 62.1618 14.5156 62.4088 15.2871C62.4378 15.3898 62.4996 15.511 62.5944 15.6506C62.6988 15.7767 62.8033 15.9028 62.9078 16.0289C63.0239 16.153 63.1264 16.2675 63.2154 16.3722C63.3044 16.477 63.3518 16.5468 63.3576 16.5817ZM60.9434 15.7444C60.9647 15.7289 60.9802 15.7144 60.9899 15.7009C60.9996 15.6873 61.0151 15.6728 61.0365 15.6573C60.77 14.9846 60.5752 14.2761 60.4521 13.5319C60.3388 12.7741 60.236 12.0803 60.1438 11.4504C60.0392 11.4677 59.9248 11.4986 59.8007 11.543C59.6767 11.5874 59.5545 11.6434 59.4343 11.7111C59.3238 11.7652 59.2191 11.8184 59.1202 11.8706C59.0329 11.9208 58.968 11.9614 58.9253 11.9924C58.6034 12.2129 58.3424 12.477 58.1424 12.7848C57.9405 13.081 57.7851 13.4054 57.6761 13.7579C57.5769 14.0969 57.5163 14.4533 57.4945 14.8273C57.4708 15.1896 57.4887 15.551 57.5483 15.9115C57.587 16.0006 57.6314 16.0889 57.6817 16.1761C57.732 16.2634 57.7764 16.3516 57.8151 16.4408C57.8828 16.4893 57.9515 16.5437 58.0212 16.6038C58.1025 16.6621 58.1829 16.7145 58.2622 16.7611C58.3746 16.7903 58.486 16.8137 58.5964 16.8313C58.7068 16.8489 58.8172 16.8664 58.9277 16.884C59.1254 16.8513 59.3182 16.8254 59.5062 16.8063C59.6941 16.7872 59.8764 16.7332 60.0528 16.6442C60.208 16.4991 60.3574 16.355 60.501 16.2118C60.6562 16.0666 60.8036 15.9108 60.9434 15.7444ZM65.1381 10.8218C64.9483 10.7577 64.8021 10.6683 64.6996 10.5539C64.597 10.4394 64.5352 10.3182 64.514 10.1903C64.4852 10.0159 64.5242 9.85415 64.6309 9.70508C64.7358 9.54439 64.8987 9.44578 65.1196 9.40925C65.2824 9.38234 65.4955 9.40684 65.7589 9.48275C66.0224 9.55866 66.2354 9.65485 66.398 9.77132C66.7085 9.40938 67.0393 9.09784 67.3903 8.83671C67.7414 8.57558 68.1146 8.41234 68.51 8.34697C68.6263 8.32774 68.7997 8.32894 69.0302 8.35055C69.2608 8.37216 69.4903 8.42381 69.7189 8.50549C69.959 8.58525 70.1759 8.70469 70.3695 8.86383C70.563 9.02297 70.68 9.22464 70.7204 9.46884C70.7531 9.66653 70.716 9.8399 70.6092 9.98896C70.5006 10.1264 70.3532 10.2105 70.1671 10.2413C70.0392 10.2624 69.9172 10.2467 69.801 10.1943C69.6945 10.1283 69.5822 10.0632 69.4641 9.9991C69.3557 9.92145 69.2375 9.85736 69.1097 9.80681C68.9935 9.75434 68.8657 9.73965 68.7261 9.76272C68.5633 9.78963 68.3917 9.87176 68.2114 10.0091C68.0407 10.1329 67.868 10.2809 67.6934 10.4531C67.5304 10.6234 67.3752 10.8044 67.2277 10.996C67.0802 11.1877 66.953 11.358 66.8463 11.5071L67.6134 16.1469C67.646 16.4162 67.5972 16.6274 67.4672 16.7803C67.3507 16.9429 67.2053 17.0386 67.0309 17.0675C66.8681 17.0944 66.7063 17.0554 66.5456 16.9506C66.3869 16.8574 66.2689 16.6857 66.1917 16.4357L65.4044 11.6738C65.4006 11.6505 65.3909 11.6282 65.3754 11.6069C65.3697 11.572 65.3649 11.5429 65.361 11.5197C65.3572 11.4964 65.3533 11.4732 65.3495 11.4499C65.3553 11.4131 65.3564 11.3831 65.3525 11.3598L65.2689 10.854C65.2185 10.8384 65.1749 10.8277 65.1381 10.8218ZM78.8894 12.6877C79.1182 12.5543 79.3256 12.5081 79.5116 12.549C79.6975 12.59 79.8379 12.6802 79.9326 12.8199C80.039 12.9576 80.0785 13.1243 80.0512 13.3199C80.0354 13.5137 79.9276 13.6928 79.7278 13.8572C79.3806 14.1416 79.0015 14.4134 78.5903 14.6725C78.1792 14.9316 77.7527 15.1335 77.3107 15.2783C76.8687 15.423 76.4201 15.4912 75.9647 15.4829C75.5113 15.4862 75.058 15.3819 74.6049 15.1701C74.0607 14.9137 73.6136 14.5217 73.2636 13.9942C72.9117 13.455 72.6789 12.8783 72.5654 12.2639C72.4499 11.6379 72.4614 11.0207 72.5998 10.4125C72.7478 9.79069 73.0489 9.26306 73.5028 8.82961C73.9781 8.38069 74.5153 8.01711 75.1145 7.73886C75.7116 7.44899 76.3415 7.32095 77.0042 7.35475C77.3297 7.37261 77.6396 7.47668 77.9339 7.66695C78.2262 7.8456 78.473 8.07359 78.6741 8.35094C78.885 8.61474 79.0241 8.91429 79.0915 9.24959C79.157 9.57327 79.1265 9.89488 79.0001 10.2144C78.8563 10.5727 78.6175 10.8989 78.2839 11.193C77.9483 11.4755 77.573 11.7346 77.158 11.9705C76.7528 12.1928 76.3379 12.3928 75.9133 12.5705C75.5003 12.7463 75.1387 12.9076 74.8285 13.0545C74.6948 13.1124 74.562 13.1404 74.4302 13.1383C74.6662 13.4815 74.973 13.7474 75.3506 13.9358C75.7379 14.1107 76.1845 14.1384 76.6903 14.019C77.0935 13.9284 77.4822 13.7506 77.8565 13.4857C78.2406 13.2071 78.5848 12.9412 78.8894 12.6877ZM74.8738 9.53477C74.4801 9.82684 74.2122 10.1937 74.0702 10.6353C73.9262 11.0653 73.8908 11.5012 73.9638 11.9431C74.0356 11.8715 74.1151 11.8105 74.2024 11.7603C74.4021 11.6675 74.6018 11.5748 74.8015 11.482C75.0109 11.3757 75.2213 11.2752 75.4326 11.1806C75.5664 11.1226 75.7438 11.0395 75.9648 10.9313C76.1975 10.8212 76.434 10.6984 76.6745 10.5631C76.9149 10.4278 77.1302 10.2847 77.3203 10.1338C77.5084 9.97126 77.6249 9.80864 77.6697 9.64594C77.6295 9.25835 77.4932 9.01209 77.2608 8.90716C77.0285 8.80222 76.7669 8.77378 76.4762 8.82185C76.1855 8.86991 75.8918 8.97223 75.5951 9.12879C75.2965 9.27373 75.0561 9.40906 74.8738 9.53477ZM16.8032 39.2997C17.0337 39.3213 17.2129 39.3933 17.3406 39.5155C17.4664 39.6261 17.5418 39.757 17.5668 39.9082C17.5899 40.0477 17.5654 40.1891 17.4936 40.3324C17.4198 40.4641 17.3014 40.5792 17.1385 40.6779L17.5711 43.2943C17.6134 43.5501 17.5618 43.7796 17.4162 43.9829C17.2822 44.1843 17.1521 44.373 17.026 44.5492C16.7154 44.9828 16.3177 45.3233 15.833 45.5707C15.3618 45.8278 14.8645 45.9996 14.3413 46.0861C13.4924 46.2265 12.7193 46.1751 12.0221 45.932C11.3229 45.6772 10.714 45.318 10.1953 44.8542C9.68629 44.3769 9.26846 43.8367 8.94178 43.2337C8.62672 42.6287 8.42113 42.0355 8.325 41.4541C8.26925 41.1168 8.24939 40.7438 8.26542 40.335C8.28145 39.9262 8.33914 39.5164 8.4385 39.1058C8.54948 38.6932 8.70501 38.2971 8.90508 37.9176C9.10515 37.5381 9.36135 37.209 9.67368 36.9304C10.2343 36.4196 10.8191 35.9824 11.428 35.6189C12.0466 35.2419 12.699 34.9967 13.385 34.8832C13.5827 34.8505 13.8249 34.8344 14.1117 34.8348C14.3966 34.8235 14.6746 34.8432 14.9458 34.894C15.2267 34.9311 15.4727 35.0099 15.6838 35.1304C15.8948 35.2508 16.0186 35.4214 16.0551 35.6424C16.0859 35.8284 16.0479 35.996 15.9411 36.1451C15.8344 36.2941 15.6821 36.385 15.4844 36.4177C15.3798 36.435 15.2538 36.4319 15.1066 36.4085C14.9594 36.385 14.8005 36.3635 14.63 36.3439C14.4692 36.3108 14.2978 36.2853 14.1157 36.2677C13.9452 36.2481 13.7785 36.2517 13.6157 36.2786C13.4995 36.2979 13.3899 36.3219 13.2872 36.3509C13.1845 36.3798 13.0837 36.4204 12.9848 36.4726C12.5543 36.6871 12.1229 36.9316 11.6904 37.2062C11.2561 37.4692 10.8729 37.7894 10.5411 38.1668C10.2209 38.5423 9.98298 38.9818 9.82731 39.4854C9.66972 39.9774 9.64764 40.5664 9.76108 41.2525C9.85336 41.8107 10.0397 42.3234 10.32 42.7907C10.5985 43.2465 10.9303 43.6276 11.3155 43.9343C11.7007 44.2409 12.1257 44.4634 12.5906 44.6015C13.0554 44.7397 13.5204 44.7704 13.9856 44.6935C14.3926 44.6262 14.7803 44.4784 15.1487 44.2503C15.5172 44.0221 15.8373 43.7183 16.1091 43.3389L15.7169 40.9667C15.2769 41.0513 14.836 41.1302 14.3941 41.2033C13.9639 41.2744 13.5278 41.3465 13.0859 41.4196C12.8243 41.427 12.618 41.3715 12.467 41.2531C12.3277 41.1328 12.2445 40.9912 12.2176 40.8284C12.1907 40.6656 12.2287 40.4981 12.3316 40.3257C12.4443 40.1399 12.6343 40.0248 12.9018 39.9806C13.018 39.9614 13.2622 39.921 13.6343 39.8595C14.0162 39.7844 14.4222 39.7113 14.8525 39.6402C15.2827 39.569 15.6839 39.5027 16.056 39.4412C16.4378 39.3661 16.6869 39.319 16.8032 39.2997ZM27.6296 42.2943C27.7844 42.4359 27.8782 42.6056 27.9109 42.8033C27.9435 43.001 27.9065 43.1744 27.7997 43.3234C27.691 43.4609 27.5437 43.5449 27.3576 43.5757C27.1018 43.618 26.8616 43.5382 26.6371 43.3364C26.4107 43.123 26.2085 42.8757 26.0306 42.5945C25.7821 42.9701 25.4736 43.3078 25.105 43.6077C24.7346 43.8959 24.3342 44.0756 23.904 44.1467C23.59 44.1986 23.279 44.1963 22.971 44.1397C22.661 44.0715 22.3628 43.9655 22.0762 43.8217C21.7993 43.6644 21.5409 43.4742 21.3009 43.251C21.0725 43.026 20.8888 42.7816 20.7496 42.5179C20.6066 42.2309 20.4878 41.9101 20.3934 41.5554C20.2969 41.189 20.2161 40.8082 20.1507 40.4128C20.0719 39.936 20.0066 39.469 19.9549 39.0116C19.9031 38.5543 19.8484 38.1511 19.7908 37.8023C19.8105 37.5601 19.8746 37.3703 19.9833 37.2329C20.092 37.0954 20.2278 37.0133 20.3906 36.9863C20.5417 36.9613 20.6899 36.9906 20.8351 37.0741C20.992 37.1557 21.1178 37.3022 21.2124 37.5135C21.3028 38.06 21.3786 38.591 21.44 39.1065C21.511 39.6085 21.5936 40.1444 21.6878 40.7142C21.7955 41.3654 22.0235 41.8772 22.3718 42.2497C22.7201 42.6222 23.1326 42.769 23.6094 42.6902C23.7838 42.6613 23.9525 42.5976 24.1154 42.499C24.2783 42.4004 24.4257 42.2804 24.5576 42.1392C24.6896 41.9979 24.807 41.8411 24.9099 41.6688C25.0128 41.4965 25.1041 41.3261 25.1838 41.1576C25.2032 41.1305 25.2294 41.1082 25.2624 41.0908C25.2934 41.0618 25.3186 41.0337 25.338 41.0066C25.1721 40.4368 25.0402 39.8553 24.9421 39.2622C24.8863 38.925 24.8306 38.5878 24.7748 38.2505C24.7288 37.8998 24.706 37.581 24.7063 37.2942C24.7164 36.9939 24.7652 36.7469 24.8526 36.5533C24.9498 36.346 25.1088 36.2242 25.3298 36.1877C25.5042 36.1588 25.6727 36.2026 25.8353 36.3191C25.996 36.4239 26.0975 36.6043 26.1398 36.8601C26.184 37.1276 26.2146 37.457 26.2315 37.8484C26.2601 38.2379 26.309 38.642 26.3782 39.0606C26.432 39.3862 26.4975 39.7099 26.5746 40.0317C26.6516 40.3534 26.7384 40.6616 26.8349 40.9563C26.9412 41.2374 27.0551 41.4933 27.1769 41.724C27.3103 41.9528 27.4612 42.1429 27.6296 42.2943ZM34.2216 37.4055C34.2158 37.3706 34.2178 37.3464 34.2275 37.3328C34.2101 37.2999 34.1966 37.2543 34.187 37.1962L34.1553 37.0043C33.9561 36.6669 33.6919 36.4418 33.3627 36.3289C33.0334 36.2161 32.6876 36.1837 32.3252 36.2317C32.0828 36.3554 31.8588 36.5179 31.6532 36.7191L31.3647 37.2506C31.3375 37.3029 31.3094 37.3494 31.2803 37.39C31.2492 37.419 31.2182 37.4481 31.1871 37.4771L31.9802 42.2739C32.0128 42.5432 31.9641 42.7544 31.834 42.9073C31.7176 43.0699 31.5721 43.1656 31.3977 43.1945C31.2349 43.2214 31.0732 43.1824 30.9125 43.0776C30.7537 42.9844 30.6357 42.8127 30.5585 42.5627L29.4425 35.8123C29.4622 35.5701 29.5273 35.3861 29.6379 35.2603C29.7466 35.1229 29.8824 35.0407 30.0452 35.0138C30.1847 34.9907 30.3271 35.021 30.4723 35.1045C30.6272 35.1744 30.7511 35.3092 30.8438 35.509C31.0087 35.3503 31.2104 35.1975 31.449 35.0505C31.6972 34.89 31.9667 34.7857 32.2574 34.7377C32.676 34.6684 33.1187 34.7087 33.5855 34.8585C34.062 34.9948 34.4609 35.2036 34.7822 35.485C34.8889 35.3359 35.0015 35.1859 35.1199 35.0349C35.248 34.8704 35.3848 34.7223 35.5303 34.5908C35.6739 34.4476 35.8271 34.3267 35.99 34.228C36.151 34.1178 36.3187 34.0483 36.4931 34.0194C36.8536 33.9598 37.2188 33.9652 37.5888 34.0354C37.9569 34.094 38.2929 34.2117 38.5969 34.3884C38.9106 34.5516 39.1729 34.765 39.3837 35.0288C39.6043 35.2791 39.7406 35.5612 39.7925 35.8752C39.7963 35.8984 39.7934 35.9168 39.7837 35.9304C39.7856 35.942 39.7885 35.9594 39.7923 35.9827C39.8059 35.9924 39.8136 36.0031 39.8155 36.0147C39.8175 36.0263 39.8252 36.037 39.8387 36.0467L40.6203 40.7737C40.6529 41.0431 40.6041 41.2542 40.4741 41.4071C40.3576 41.5697 40.2122 41.6655 40.0378 41.6943C39.875 41.7212 39.7132 41.6823 39.5525 41.5774C39.3938 41.4842 39.2758 41.3126 39.1986 41.0625L38.4084 36.2832C38.2132 35.8973 37.9704 35.6567 37.6798 35.5614C37.3874 35.4545 37.1074 35.4231 36.84 35.4673C36.5376 35.5173 36.2769 35.6381 36.0577 35.8296C35.8385 36.0212 35.6811 36.3339 35.5856 36.7678L36.3613 41.4599C36.3939 41.7293 36.3462 41.9462 36.2181 42.1108C36.0997 42.2618 35.9533 42.3517 35.7789 42.3805C35.6161 42.4074 35.4543 42.3685 35.2936 42.2636C35.1349 42.1704 35.0169 41.9988 34.9397 41.7487L34.2216 37.4055ZM47.3404 35.2365C47.3346 35.2016 47.3366 35.1774 47.3463 35.1638C47.3289 35.1309 47.3154 35.0853 47.3058 35.0272L47.2741 34.8353C47.0749 34.4979 46.8107 34.2728 46.4815 34.16C46.1522 34.0472 45.8064 34.0147 45.444 34.0627C45.2016 34.1864 44.9776 34.3489 44.7719 34.5501L44.4835 35.0817C44.4563 35.1339 44.4282 35.1804 44.399 35.2211C44.368 35.2501 44.337 35.2791 44.3059 35.3081L45.099 40.1049C45.1316 40.3743 45.0829 40.5854 44.9528 40.7383C44.8364 40.9009 44.6909 40.9967 44.5165 41.0255C44.3537 41.0524 44.1919 41.0135 44.0312 40.9086C43.8725 40.8154 43.7545 40.6438 43.6773 40.3937L42.5613 33.6433C42.581 33.4012 42.6461 33.2172 42.7567 33.0914C42.8654 32.9539 43.0012 32.8718 43.1639 32.8448C43.3035 32.8218 43.4459 32.852 43.5911 32.9355C43.746 33.0055 43.8698 33.1403 43.9626 33.34C44.1275 33.1813 44.3292 33.0285 44.5677 32.8815C44.816 32.721 45.0854 32.6168 45.3762 32.5687C45.7948 32.4995 46.2375 32.5398 46.7043 32.6896C47.1808 32.8258 47.5797 33.0347 47.9009 33.316C48.0077 33.167 48.1203 33.0169 48.2387 32.866C48.3668 32.7014 48.5036 32.5534 48.6491 32.4218C48.7926 32.2786 48.9459 32.1577 49.1088 32.0591C49.2697 31.9488 49.4374 31.8793 49.6119 31.8505C49.9723 31.7909 50.3376 31.7962 50.7076 31.8664C51.0757 31.925 51.4117 32.0427 51.7157 32.2194C52.0294 32.3826 52.2917 32.5961 52.5025 32.8599C52.7231 33.1101 52.8593 33.3922 52.9112 33.7062C52.9151 33.7295 52.9122 33.7479 52.9025 33.7614C52.9044 33.773 52.9073 33.7905 52.9111 33.8137C52.9247 33.8234 52.9324 33.8341 52.9343 33.8457C52.9362 33.8574 52.944 33.868 52.9575 33.8777L53.7391 38.6047C53.7716 38.8741 53.7229 39.0852 53.5929 39.2382C53.4764 39.4008 53.331 39.4965 53.1566 39.5253C52.9938 39.5522 52.832 39.5133 52.6713 39.4084C52.5126 39.3152 52.3946 39.1436 52.3174 38.8935L51.5272 34.1142C51.332 33.7284 51.0892 33.4878 50.7986 33.3925C50.5062 33.2855 50.2262 33.2541 49.9588 33.2984C49.6564 33.3483 49.3957 33.4691 49.1764 33.6607C48.9572 33.8522 48.7999 34.1649 48.7044 34.5988L49.4801 39.2909C49.5127 39.5603 49.465 39.7773 49.3369 39.9418C49.2185 40.0928 49.0721 40.1827 48.8976 40.2116C48.7348 40.2385 48.5731 40.1995 48.4124 40.0947C48.2536 40.0014 48.1357 39.8298 48.0585 39.5798L47.3404 35.2365ZM58.3491 37.8784C58.3817 38.1478 58.333 38.3589 58.2029 38.5118C58.0865 38.6744 57.941 38.7701 57.7666 38.799C57.6038 38.8259 57.442 38.7869 57.2813 38.6821C57.1226 38.5889 57.0046 38.4172 56.9274 38.1672C56.7351 37.076 56.5389 35.9616 56.3388 34.8239C56.1504 33.6843 55.96 32.569 55.7677 31.4778C55.7874 31.2356 55.8516 31.0458 55.9603 30.9084C56.069 30.771 56.2047 30.6888 56.3675 30.6619C56.5187 30.6369 56.6669 30.6661 56.8121 30.7496C56.9689 30.8312 57.0947 30.9777 57.1893 31.189C57.3817 32.2802 57.5721 33.3955 57.7605 34.5351C57.9605 35.6728 58.1567 36.7872 58.3491 37.8784ZM55.1755 28.6548C55.1332 28.399 55.1791 28.1704 55.313 27.9691C55.4451 27.7561 55.6274 27.6304 55.8599 27.5919C56.0925 27.5535 56.3056 27.6138 56.4991 27.773C56.7024 27.9186 56.8252 28.1193 56.8675 28.3751C56.9078 28.6193 56.8562 28.8488 56.7125 29.0637C56.5786 29.2651 56.3953 29.385 56.1627 29.4234C55.9302 29.4619 55.7181 29.4073 55.5264 29.2598C55.3329 29.1007 55.2159 28.899 55.1755 28.6548ZM67.2756 34.8794C67.5044 34.746 67.7118 34.6997 67.8977 34.7407C68.0837 34.7816 68.2241 34.8719 68.3188 35.0115C68.4252 35.1492 68.4647 35.3159 68.4374 35.5116C68.4216 35.7053 68.3138 35.8844 68.114 36.0489C67.7668 36.3333 67.3877 36.605 66.9765 36.8641C66.5654 37.1232 66.1389 37.3252 65.6969 37.4699C65.2549 37.6147 64.8063 37.6829 64.3509 37.6745C63.8975 37.6778 63.4442 37.5736 62.9911 37.3618C62.4469 37.1053 61.9998 36.7133 61.6498 36.1858C61.2978 35.6467 61.0651 35.0699 60.9516 34.4555C60.8361 33.8295 60.8476 33.2124 60.9859 32.6041C61.134 31.9823 61.435 31.4547 61.889 31.0213C62.3643 30.5723 62.9015 30.2088 63.5006 29.9305C64.0978 29.6406 64.7277 29.5126 65.3904 29.5464C65.7159 29.5643 66.0258 29.6683 66.32 29.8586C66.6124 30.0372 66.8592 30.2652 67.0603 30.5426C67.2712 30.8064 67.4103 31.1059 67.4777 31.4412C67.5431 31.7649 67.5127 32.0865 67.3863 32.4061C67.2425 32.7644 67.0037 33.0906 66.6701 33.3846C66.3345 33.6671 65.9592 33.9263 65.5442 34.1621C65.139 34.3844 64.724 34.5844 64.2995 34.7622C63.8865 34.9379 63.5249 35.0993 63.2147 35.2461C63.0809 35.3041 62.9482 35.332 62.8164 35.3299C63.0524 35.6732 63.3591 35.939 63.7367 36.1275C64.124 36.3024 64.5706 36.3301 65.0765 36.2106C65.4797 36.1201 65.8684 35.9423 66.2427 35.6773C66.6268 35.3988 66.971 35.1328 67.2756 34.8794ZM63.26 31.7264C62.8662 32.0185 62.5984 32.3853 62.4564 32.8269C62.3124 33.2569 62.277 33.6928 62.35 34.1347C62.4218 34.0631 62.5013 34.0022 62.5886 33.9519C62.7883 33.8592 62.988 33.7664 63.1877 33.6737C63.3971 33.5674 63.6075 33.4669 63.8188 33.3722C63.9526 33.3143 64.13 33.2312 64.351 33.123C64.5837 33.0128 64.8202 32.8901 65.0607 32.7548C65.3011 32.6194 65.5164 32.4763 65.7065 32.3254C65.8946 32.1629 66.0111 32.0003 66.0559 31.8376C66.0157 31.45 65.8794 31.2037 65.647 31.0988C65.4146 30.9939 65.1531 30.9654 64.8624 31.0135C64.5717 31.0616 64.278 31.1639 63.9813 31.3204C63.6827 31.4654 63.4423 31.6007 63.26 31.7264ZM70.7364 35.0956C70.5971 34.9036 70.5315 34.7233 70.5395 34.5548C70.5455 34.3746 70.5932 34.2293 70.6824 34.119C70.7814 33.9951 70.9181 33.9187 71.0926 33.8899C71.267 33.8611 71.4578 33.8952 71.665 33.9924C71.9882 34.2854 72.3454 34.4951 72.7367 34.6216C73.1396 34.7461 73.5532 34.7912 73.9776 34.7569L74.3266 34.5917C74.4081 34.5065 74.4643 34.4494 74.4954 34.4204C74.5264 34.3914 74.5468 34.3701 74.5565 34.3565C74.5759 34.3294 74.5944 34.2965 74.6119 34.2578C74.641 34.2171 74.6827 34.1445 74.7371 34.04C74.7527 33.9896 74.7624 33.9402 74.7664 33.8918C74.7703 33.8433 74.7791 33.7881 74.7928 33.7261C74.7831 33.668 74.7745 33.6157 74.7668 33.5692C74.7707 33.5207 74.7679 33.4674 74.7583 33.4093L74.6017 33.1126C74.5591 33.0719 74.5108 33.0321 74.4566 32.9933C74.414 32.9525 74.3714 32.9118 74.3288 32.871C74.0073 32.733 73.6945 32.6474 73.3904 32.614C73.0862 32.5807 72.7878 32.5464 72.4953 32.5111C72.2124 32.4623 71.9258 32.3903 71.6352 32.2949C71.3563 32.1977 71.0747 32.0113 70.7902 31.7358C70.5231 31.4932 70.3481 31.1936 70.2653 30.837C70.1921 30.4668 70.1916 30.1025 70.2638 29.7442C70.3476 29.3839 70.4962 29.0547 70.7098 28.7565C70.933 28.4449 71.2075 28.2263 71.5331 28.1007C72.0023 27.9037 72.4946 27.8104 73.01 27.8207C73.537 27.8291 74.0407 27.9131 74.5211 28.0726C74.7554 28.1892 74.9063 28.3434 74.9739 28.5354C75.0395 28.7156 75.0374 28.8832 74.9674 29.0382C74.9091 29.1912 74.7917 29.3121 74.6153 29.401C74.4504 29.488 74.2421 29.4926 73.9903 29.4147C73.6863 29.3097 73.3734 29.2599 73.0517 29.2653C72.7417 29.2688 72.4335 29.3197 72.1273 29.4181C72.0962 29.4472 72.0584 29.4713 72.0138 29.4907C71.9809 29.5081 71.9489 29.5313 71.9178 29.5603C71.813 29.721 71.743 29.8759 71.7079 30.0251C71.671 30.1626 71.6746 30.3292 71.7189 30.525C71.7382 30.5696 71.7788 30.6345 71.8407 30.7199C71.8833 30.7606 71.9249 30.7956 71.9656 30.8247C72.0062 30.8538 72.0479 30.8887 72.0904 30.9295C72.3945 31.0345 72.717 31.1066 73.058 31.1458C73.4087 31.1715 73.7506 31.2165 74.0838 31.2808C74.4151 31.3336 74.7299 31.4309 75.0281 31.5727C75.3244 31.7029 75.5769 31.93 75.7858 32.2538C76.1745 32.8705 76.3161 33.4743 76.2107 34.0651C76.1169 34.6541 75.811 35.1885 75.2931 35.6683C75.1573 35.7864 75.0011 35.8898 74.8247 35.9787C74.6502 36.0792 74.4815 36.143 74.3187 36.1699C73.6908 36.2737 73.0514 36.2361 72.4006 36.057C71.7478 35.8662 71.1931 35.5458 70.7364 35.0956ZM95.3355 31.0107C95.6337 31.1525 95.8049 31.3572 95.8491 31.6246C95.8779 31.7991 95.8341 31.9676 95.7177 32.1302C95.6109 32.2793 95.4354 32.374 95.1912 32.4144C95.1214 32.4259 95.0681 32.4287 95.0313 32.4229C94.5916 32.3642 94.1518 32.2696 93.7122 32.1392C93.2841 32.0069 92.8561 31.8387 92.4281 31.6347C92.0069 32.1942 91.5665 32.6373 91.1069 32.9642C90.6588 33.2891 90.1616 33.4968 89.615 33.5872C89.1731 33.6602 88.7294 33.6499 88.2839 33.5564C87.8519 33.4725 87.4549 33.3111 87.0928 33.0723C86.7308 32.8335 86.4183 32.5328 86.1552 32.1701C85.9038 31.8055 85.7387 31.3848 85.6598 30.908C85.5983 30.5359 85.5958 30.1959 85.6524 29.8878C85.709 29.5798 85.8053 29.2951 85.9413 29.0337C86.0773 28.7723 86.2462 28.5293 86.448 28.3048C86.6595 28.0668 86.8855 27.8442 87.1261 27.6372C86.8358 27.3268 86.5485 26.9622 86.2642 26.5433C85.9916 26.1224 85.8168 25.6794 85.7399 25.2143C85.6822 24.8654 85.7068 24.5448 85.8138 24.2523C85.9208 23.9599 86.0751 23.7014 86.2769 23.4769C86.4885 23.2388 86.7319 23.0493 87.0072 22.9082C87.2806 22.7555 87.5569 22.656 87.836 22.6099C88.1499 22.558 88.4609 22.5603 88.7689 22.6169C89.0769 22.6735 89.3587 22.7882 89.6143 22.961C89.8795 23.1202 90.1001 23.3346 90.2761 23.6042C90.4618 23.8602 90.5854 24.1742 90.6469 24.5464C90.695 24.8371 90.6965 25.1355 90.6516 25.4416C90.6182 25.7457 90.5413 26.0392 90.4208 26.3219C90.2984 26.5931 90.144 26.8515 89.9577 27.0974C89.7811 27.3297 89.5696 27.5319 89.3233 27.704L90.5688 28.7345C90.803 28.9228 91.0295 29.1004 91.2483 29.2673C91.4786 29.4323 91.7139 29.5905 91.9539 29.742C92.2414 29.2405 92.4929 28.739 92.7087 28.2374C92.9341 27.7223 93.1207 27.2613 93.2685 26.8546C93.3346 26.6764 93.4201 26.5429 93.5248 26.4539C93.6412 26.3629 93.7575 26.3079 93.8738 26.2886C94.0482 26.2598 94.2158 26.2978 94.3765 26.4026C94.5372 26.5075 94.6348 26.6646 94.6694 26.8739C94.6944 27.025 94.6651 27.2449 94.5814 27.5335C94.4977 27.8221 94.382 28.134 94.2343 28.469C94.0847 28.7924 93.9195 29.1303 93.7389 29.4827C93.5563 29.8235 93.3805 30.1333 93.2116 30.4121C93.5466 30.5598 93.8904 30.6881 94.2429 30.7971C94.5935 30.8944 94.9577 30.9656 95.3355 31.0107ZM90.187 31.844C90.3479 31.7338 90.506 31.6061 90.6612 31.461C90.8261 31.3023 90.9881 31.1262 91.1473 30.9326C90.6032 30.6044 90.0786 30.2492 89.5733 29.8668C89.0797 29.4825 88.6075 29.0827 88.1565 28.6675C87.9994 28.801 87.8481 28.9335 87.7026 29.0651C87.5571 29.1966 87.4319 29.3428 87.3271 29.5035C87.2203 29.6525 87.1416 29.8268 87.091 30.0263C87.0384 30.2142 87.0323 30.4302 87.0727 30.6744C87.1169 30.9419 87.2096 31.1774 87.3508 31.3811C87.5036 31.5828 87.6865 31.7497 87.8995 31.8817C88.1125 32.0138 88.3487 32.1061 88.6083 32.1588C88.866 32.1998 89.1227 32.1991 89.3785 32.1568C89.5181 32.1338 89.6557 32.0991 89.7914 32.0527C89.9368 31.9929 90.0686 31.9233 90.187 31.844ZM87.3671 25.5187C87.4231 25.7125 87.5284 25.9161 87.6832 26.1295C87.8495 26.3409 88.0401 26.5543 88.2549 26.7696C88.5362 26.52 88.7865 26.2278 89.0059 25.8928C89.2253 25.5579 89.2966 25.1579 89.2196 24.6927C89.1774 24.4369 89.0274 24.2526 88.7699 24.1399C88.5239 24.0253 88.2672 23.9901 87.9998 24.0343C87.6974 24.0843 87.4861 24.2148 87.3656 24.4258C87.2549 24.6233 87.2207 24.85 87.263 25.1058C87.2746 25.1756 87.2861 25.2454 87.2976 25.3151C87.3208 25.383 87.344 25.4508 87.3671 25.5187ZM12.9851 58.7152C13.0687 58.4983 13.1813 58.3482 13.3229 58.2651C13.4741 58.1684 13.6234 58.1318 13.7706 58.1552C13.9275 58.1651 14.065 58.238 14.183 58.3738C14.3108 58.496 14.3871 58.6685 14.412 58.8914C14.353 59.5463 14.263 60.1943 14.1421 60.8355C14.0308 61.4632 13.9205 62.0966 13.8112 62.7359C13.7058 63.3268 13.5994 63.9118 13.4921 64.491C13.3945 65.0567 13.2736 65.6262 13.1294 66.1996C12.9624 66.49 12.7481 66.639 12.4865 66.6464C12.2249 66.6538 12.0003 66.5237 11.8127 66.256C11.2115 65.2205 10.6005 64.1986 9.9798 63.1902C9.37074 62.1799 8.71225 61.1956 8.0043 60.2375C7.84957 60.0242 7.78685 59.8255 7.81615 59.6414C7.84354 59.4458 7.92027 59.2957 8.04635 59.1912C8.17051 59.0751 8.32851 59.0191 8.52033 59.0233C8.72378 59.0255 8.9184 59.1187 9.10417 59.3031C9.64575 60.0498 10.166 60.8119 10.6649 61.5896C11.1638 62.3672 11.653 63.1584 12.1325 63.9632C12.1774 63.7288 12.2164 63.4954 12.2497 63.2629C12.2946 63.0285 12.3394 62.7941 12.3843 62.5597C12.4936 61.9204 12.6039 61.2869 12.7152 60.6593C12.8245 60.02 12.9145 59.3719 12.9851 58.7152ZM23.4352 62.3991C23.664 62.2657 23.8714 62.2195 24.0574 62.2604C24.2433 62.3014 24.3837 62.3916 24.4785 62.5313C24.5848 62.669 24.6244 62.8357 24.597 63.0314C24.5812 63.2251 24.4734 63.4042 24.2737 63.5686C23.9264 63.853 23.5473 64.1248 23.1362 64.3839C22.725 64.643 22.2985 64.8449 21.8565 64.9897C21.4145 65.1344 20.9659 65.2026 20.5105 65.1943C20.0571 65.1976 19.6038 65.0933 19.1507 64.8815C18.6065 64.6251 18.1594 64.2331 17.8094 63.7056C17.4575 63.1664 17.2247 62.5897 17.1112 61.9753C16.9957 61.3493 17.0072 60.7321 17.1456 60.1239C17.2936 59.5021 17.5947 58.9745 18.0486 58.541C18.5239 58.0921 19.0612 57.7285 19.6603 57.4503C20.2574 57.1604 20.8873 57.0324 21.55 57.0662C21.8755 57.084 22.1854 57.1881 22.4797 57.3784C22.772 57.557 23.0188 57.785 23.2199 58.0623C23.4308 58.3261 23.5699 58.6257 23.6373 58.961C23.7028 59.2847 23.6723 59.6063 23.5459 59.9258C23.4021 60.2841 23.1633 60.6103 22.8297 60.9044C22.4941 61.1869 22.1188 61.446 21.7038 61.6819C21.2986 61.9042 20.8837 62.1042 20.4591 62.2819C20.0461 62.4577 19.6845 62.619 19.3743 62.7659C19.2406 62.8238 19.1078 62.8518 18.976 62.8497C19.212 63.1929 19.5188 63.4588 19.8964 63.6472C20.2837 63.8221 20.7303 63.8498 21.2361 63.7304C21.6393 63.6398 22.028 63.4621 22.4023 63.1971C22.7864 62.9186 23.1306 62.6526 23.4352 62.3991ZM19.4196 59.2462C19.0259 59.5383 18.758 59.9051 18.616 60.3467C18.472 60.7767 18.4366 61.2126 18.5096 61.6545C18.5814 61.5829 18.6609 61.522 18.7482 61.4717C18.9479 61.3789 19.1476 61.2862 19.3473 61.1934C19.5567 61.0871 19.7671 60.9867 19.9784 60.892C20.1122 60.834 20.2896 60.7509 20.5106 60.6427C20.7433 60.5326 20.9798 60.4098 21.2203 60.2745C21.4607 60.1392 21.676 59.9961 21.8661 59.8452C22.0543 59.6827 22.1707 59.5201 22.2155 59.3573C22.1753 58.9698 22.039 58.7235 21.8066 58.6186C21.5743 58.5136 21.3127 58.4852 21.022 58.5333C20.7313 58.5813 20.4376 58.6836 20.1409 58.8402C19.8423 58.9851 19.6019 59.1205 19.4196 59.2462ZM26.8725 57.6914C26.6827 57.6272 26.5365 57.5379 26.4339 57.4235C26.3314 57.309 26.2695 57.1878 26.2484 57.0599C26.2195 56.8855 26.2585 56.7237 26.3653 56.5747C26.4701 56.414 26.633 56.3154 26.854 56.2788C27.0168 56.2519 27.2299 56.2764 27.4933 56.3523C27.7567 56.4282 27.9697 56.5244 28.1323 56.6409C28.4428 56.279 28.7736 55.9674 29.1247 55.7063C29.4757 55.4452 29.8489 55.2819 30.2443 55.2165C30.3606 55.1973 30.534 55.1985 30.7646 55.2201C30.9951 55.2417 31.2247 55.2934 31.4532 55.3751C31.6934 55.4548 31.9102 55.5743 32.1038 55.7334C32.2974 55.8926 32.4143 56.0942 32.4547 56.3384C32.4874 56.5361 32.4504 56.7095 32.3436 56.8585C32.2349 56.996 32.0875 57.0801 31.9015 57.1108C31.7736 57.132 31.6515 57.1163 31.5353 57.0639C31.4288 56.9978 31.3165 56.9328 31.1984 56.8687C31.09 56.791 30.9719 56.7269 30.8441 56.6764C30.7279 56.6239 30.6 56.6092 30.4605 56.6323C30.2977 56.6592 30.1261 56.7413 29.9457 56.8787C29.775 57.0025 29.6024 57.1505 29.4278 57.3227C29.2648 57.493 29.1095 57.674 28.962 57.8656C28.8145 58.0573 28.6874 58.2276 28.5806 58.3767L29.3477 63.0164C29.3803 63.2858 29.3316 63.497 29.2016 63.6499C29.0851 63.8125 28.9396 63.9082 28.7652 63.937C28.6024 63.964 28.4407 63.925 28.28 63.8202C28.1212 63.7269 28.0032 63.5553 27.926 63.3052L27.1388 58.5434C27.1349 58.5201 27.1253 58.4978 27.1098 58.4765C27.104 58.4416 27.0992 58.4125 27.0954 58.3893C27.0915 58.366 27.0877 58.3428 27.0838 58.3195C27.0897 58.2827 27.0907 58.2527 27.0868 58.2294L27.0032 57.7236C26.9529 57.708 26.9093 57.6973 26.8725 57.6914ZM40.4425 54.0143C40.5086 53.8361 40.594 53.7025 40.6988 53.6135C40.8035 53.5245 40.9198 53.4695 41.0478 53.4483C41.2454 53.4156 41.4207 53.4643 41.5737 53.5943C41.7266 53.7243 41.8251 53.9231 41.8693 54.1905C41.7809 55.1728 41.6236 56.1366 41.3976 57.0819C41.1716 58.0272 40.9079 58.9608 40.6063 59.8827C40.3048 60.8047 39.9781 61.7188 39.6262 62.6252C39.2762 63.5432 38.9388 64.4651 38.614 65.3909C38.5422 65.5342 38.4519 65.6387 38.3433 65.7044C38.2367 65.7818 38.131 65.8291 38.0263 65.8464C37.8519 65.8753 37.6902 65.8363 37.5411 65.7295C37.392 65.6228 37.2983 65.4531 37.2598 65.2205C37.2541 65.1857 37.2473 65.145 37.2397 65.0984C37.2339 65.0636 37.233 65.0219 37.2369 64.9735C37.5034 64.2007 37.7834 63.4376 38.077 62.6842C38.3705 61.9309 38.6515 61.1736 38.9199 60.4124C38.3932 60.1172 37.9121 59.8085 37.4766 59.4863C37.0391 59.1524 36.6336 58.7954 36.2601 58.4151C35.8963 58.0213 35.5627 57.5926 35.259 57.1291C34.9535 56.654 34.6703 56.1334 34.4095 55.5672C34.3595 55.2649 34.3801 55.0285 34.4714 54.8581C34.5724 54.6742 34.7276 54.5649 34.9369 54.5303C35.0881 54.5053 35.2363 54.5346 35.3815 54.6181C35.5364 54.688 35.6612 54.8287 35.7559 55.04C35.9645 55.5073 36.1907 55.9358 36.4343 56.3256C36.6877 56.7018 36.9604 57.0509 37.2526 57.373C37.5545 57.6815 37.8777 57.9745 38.2222 58.252C38.5765 58.516 38.9588 58.7693 39.3693 59.0121C39.6281 58.1928 39.851 57.3734 40.0381 56.554C40.2368 55.7327 40.3716 54.8861 40.4425 54.0143ZM56.9065 51.2922C56.9726 51.1141 57.058 50.9805 57.1628 50.8915C57.2675 50.8025 57.3838 50.7474 57.5118 50.7263C57.7094 50.6936 57.8847 50.7423 58.0376 50.8723C58.1906 51.0023 58.2891 51.201 58.3333 51.4685C58.2449 52.4508 58.0876 53.4146 57.8616 54.3598C57.6356 55.3051 57.3719 56.2388 57.0703 57.1607C56.7688 58.0826 56.4421 58.9968 56.0902 59.9032C55.7402 60.8212 55.4028 61.7431 55.078 62.6688C55.0062 62.8121 54.9159 62.9166 54.8073 62.9824C54.7007 63.0598 54.595 63.1071 54.4903 63.1244C54.3159 63.1532 54.1542 63.1143 54.0051 63.0075C53.856 62.9007 53.7623 62.7311 53.7238 62.4985C53.7181 62.4636 53.7113 62.4229 53.7036 62.3764C53.6979 62.3415 53.697 62.2999 53.7009 62.2514C53.9674 61.4786 54.2474 60.7156 54.5409 59.9622C54.8345 59.2088 55.1155 58.4515 55.3839 57.6904C54.8572 57.3952 54.3761 57.0865 53.9405 56.7643C53.5031 56.4304 53.0976 56.0733 52.7241 55.6931C52.3603 55.2993 52.0267 54.8706 51.723 54.4071C51.4175 53.932 51.1343 53.4113 50.8735 52.8452C50.8235 52.5429 50.8441 52.3065 50.9354 52.1361C51.0364 51.9522 51.1916 51.8429 51.4009 51.8083C51.5521 51.7833 51.7002 51.8125 51.8455 51.896C52.0004 51.966 52.1252 52.1066 52.2199 52.318C52.4285 52.7852 52.6547 53.2137 52.8983 53.6035C53.1517 53.9798 53.4244 54.3289 53.7166 54.6509C54.0185 54.9594 54.3417 55.2524 54.6862 55.53C55.0405 55.7939 55.4228 56.0473 55.8333 56.29C56.0921 55.4707 56.315 54.6514 56.5021 53.832C56.7008 53.0107 56.8356 52.1641 56.9065 51.2922ZM68.5603 55.7986C68.7151 55.9403 68.8089 56.1099 68.8416 56.3076C68.8742 56.5053 68.8372 56.6787 68.7304 56.8277C68.6217 56.9652 68.4744 57.0493 68.2883 57.08C68.0325 57.1223 67.7923 57.0426 67.5678 56.8408C67.3414 56.6273 67.1392 56.38 66.9613 56.0988C66.7128 56.4744 66.4043 56.8121 66.0357 57.112C65.6653 57.4002 65.2649 57.5799 64.8346 57.651C64.5207 57.7029 64.2097 57.7006 63.9017 57.644C63.5917 57.5758 63.2935 57.4698 63.0069 57.326C62.73 57.1687 62.4716 56.9785 62.2316 56.7554C62.0032 56.5303 61.8195 56.2859 61.6803 56.0222C61.5373 55.7352 61.4185 55.4144 61.324 55.0597C61.2276 54.6933 61.1468 54.3125 61.0814 53.9171C61.0026 53.4403 60.9373 52.9733 60.8856 52.5159C60.8338 52.0586 60.7791 51.6555 60.7215 51.3066C60.7412 51.0644 60.8053 50.8746 60.914 50.7372C61.0227 50.5998 61.1585 50.5176 61.3213 50.4907C61.4724 50.4657 61.6206 50.4949 61.7658 50.5784C61.9227 50.66 62.0484 50.8065 62.1431 51.0178C62.2335 51.5643 62.3093 52.0954 62.3707 52.6109C62.4417 53.1128 62.5243 53.6487 62.6185 54.2185C62.7262 54.8697 62.9542 55.3815 63.3025 55.754C63.6508 56.1265 64.0633 56.2733 64.5401 56.1945C64.7145 56.1657 64.8832 56.1019 65.0461 56.0033C65.2089 55.9047 65.3564 55.7848 65.4883 55.6435C65.6203 55.5022 65.7377 55.3454 65.8406 55.1731C65.9435 55.0008 66.0348 54.8304 66.1145 54.6619C66.1339 54.6348 66.1601 54.6126 66.193 54.5952C66.2241 54.5661 66.2493 54.5381 66.2687 54.511C66.1028 53.9411 65.9708 53.3596 65.8728 52.7665C65.817 52.4293 65.7613 52.0921 65.7055 51.7549C65.6595 51.4041 65.6366 51.0853 65.637 50.7985C65.6471 50.4982 65.6959 50.2512 65.7833 50.0576C65.8805 49.8504 66.0395 49.7285 66.2604 49.692C66.4349 49.6631 66.6034 49.7069 66.766 49.8234C66.9267 49.9283 67.0282 50.1086 67.0705 50.3644C67.1147 50.6319 67.1453 50.9613 67.1622 51.3528C67.1908 51.7423 67.2397 52.1463 67.3089 52.565C67.3627 52.8906 67.4282 53.2142 67.5053 53.536C67.5823 53.8577 67.6691 54.1659 67.7656 54.4606C67.8718 54.7417 67.9858 54.9976 68.1076 55.2284C68.241 55.4572 68.3919 55.6473 68.5603 55.7986ZM75.1523 50.9098C75.1465 50.8749 75.1485 50.8507 75.1582 50.8371C75.1408 50.8042 75.1273 50.7586 75.1177 50.7005L75.086 50.5086C74.8868 50.1712 74.6226 49.9461 74.2934 49.8333C73.9641 49.7205 73.6183 49.688 73.2559 49.736C73.0135 49.8597 72.7895 50.0222 72.5838 50.2234L72.2954 50.7549C72.2682 50.8072 72.2401 50.8537 72.2109 50.8943C72.1799 50.9234 72.1489 50.9524 72.1178 50.9814L72.9109 55.7782C72.9435 56.0476 72.8948 56.2587 72.7647 56.4116C72.6483 56.5742 72.5028 56.6699 72.3284 56.6988C72.1656 56.7257 72.0038 56.6867 71.8432 56.5819C71.6844 56.4887 71.5664 56.317 71.4892 56.067L70.3732 49.3166C70.3929 49.0745 70.458 48.8905 70.5686 48.7647C70.6773 48.6272 70.8131 48.545 70.9759 48.5181C71.1154 48.4951 71.2578 48.5253 71.403 48.6088C71.5579 48.6787 71.6818 48.8136 71.7745 49.0133C71.9394 48.8546 72.1411 48.7018 72.3797 48.5548C72.6279 48.3943 72.8974 48.29 73.1881 48.242C73.6067 48.1728 74.0494 48.2131 74.5162 48.3629C74.9927 48.4991 75.3916 48.7079 75.7128 48.9893C75.8196 48.8403 75.9322 48.6902 76.0506 48.5392C76.1787 48.3747 76.3155 48.2267 76.461 48.0951C76.6046 47.9519 76.7578 47.831 76.9207 47.7324C77.0816 47.6221 77.2493 47.5526 77.4238 47.5238C77.7843 47.4642 78.1495 47.4695 78.5195 47.5397C78.8876 47.5983 79.2236 47.716 79.5276 47.8927C79.8413 48.0559 80.1036 48.2694 80.3144 48.5332C80.535 48.7834 80.6712 49.0655 80.7232 49.3795C80.727 49.4027 80.7241 49.4211 80.7144 49.4347C80.7163 49.4463 80.7192 49.4638 80.723 49.487C80.7366 49.4967 80.7443 49.5074 80.7462 49.519C80.7481 49.5307 80.7559 49.5413 80.7694 49.551L81.551 54.278C81.5836 54.5474 81.5348 54.7585 81.4048 54.9114C81.2883 55.0741 81.1429 55.1698 80.9685 55.1986C80.8057 55.2255 80.6439 55.1866 80.4832 55.0817C80.3245 54.9885 80.2065 54.8169 80.1293 54.5668L79.3391 49.7875C79.1439 49.4017 78.9011 49.1611 78.6105 49.0657C78.3181 48.9588 78.0381 48.9274 77.7707 48.9716C77.4683 49.0216 77.2076 49.1424 76.9884 49.3339C76.7692 49.5255 76.6118 49.8382 76.5163 50.2721L77.292 54.9642C77.3246 55.2336 77.2769 55.4506 77.1488 55.6151C77.0304 55.7661 76.884 55.856 76.7095 55.8848C76.5467 55.9118 76.385 55.8728 76.2243 55.7679C76.0655 55.6747 75.9476 55.5031 75.8704 55.253L75.1523 50.9098ZM88.2711 48.7408C88.2653 48.7059 88.2673 48.6817 88.277 48.6682C88.2596 48.6352 88.2461 48.5897 88.2365 48.5315L88.2048 48.3396C88.0056 48.0022 87.7414 47.7771 87.4122 47.6643C87.0829 47.5515 86.7371 47.5191 86.3747 47.567C86.1323 47.6907 85.9083 47.8532 85.7026 48.0545L85.4142 48.586C85.387 48.6383 85.3588 48.6847 85.3297 48.7254C85.2987 48.7544 85.2676 48.7834 85.2366 48.8125L86.0297 53.6092C86.0623 53.8786 86.0135 54.0897 85.8835 54.2426C85.767 54.4053 85.6216 54.501 85.4472 54.5298C85.2844 54.5567 85.1226 54.5178 84.9619 54.4129C84.8032 54.3197 84.6852 54.1481 84.608 53.898L83.492 47.1477C83.5117 46.9055 83.5768 46.7215 83.6874 46.5957C83.7961 46.4583 83.9318 46.3761 84.0946 46.3492C84.2342 46.3261 84.3766 46.3563 84.5218 46.4398C84.6767 46.5098 84.8005 46.6446 84.8933 46.8443C85.0582 46.6856 85.2599 46.5328 85.4984 46.3859C85.7467 46.2254 86.0161 46.1211 86.3068 46.073C86.7255 46.0038 87.1682 46.0441 87.635 46.1939C88.1115 46.3302 88.5103 46.539 88.8316 46.8204C88.9384 46.6713 89.051 46.5213 89.1694 46.3703C89.2975 46.2057 89.4343 46.0577 89.5798 45.9261C89.7233 45.7829 89.8766 45.662 90.0395 45.5634C90.2004 45.4532 90.3681 45.3836 90.5426 45.3548C90.903 45.2952 91.2683 45.3005 91.6383 45.3707C92.0064 45.4294 92.3424 45.547 92.6464 45.7237C92.9601 45.8869 93.2224 46.1004 93.4332 46.3642C93.6538 46.6144 93.79 46.8965 93.8419 47.2105C93.8458 47.2338 93.8429 47.2522 93.8331 47.2657C93.8351 47.2774 93.838 47.2948 93.8418 47.3181C93.8553 47.3278 93.8631 47.3384 93.865 47.3501C93.8669 47.3617 93.8747 47.3724 93.8882 47.3821L94.6697 52.109C94.7023 52.3784 94.6536 52.5896 94.5236 52.7425C94.4071 52.9051 94.2617 53.0008 94.0872 53.0297C93.9244 53.0566 93.7627 53.0176 93.602 52.9128C93.4432 52.8195 93.3253 52.6479 93.2481 52.3979L92.4579 47.6185C92.2627 47.2327 92.0198 46.9921 91.7293 46.8968C91.4369 46.7898 91.1569 46.7585 90.8895 46.8027C90.5871 46.8527 90.3263 46.9734 90.1071 47.165C89.8879 47.3565 89.7306 47.6692 89.6351 48.1032L90.4108 52.7953C90.4434 53.0646 90.3957 53.2816 90.2676 53.4461C90.1492 53.5971 90.0028 53.687 89.8283 53.7159C89.6655 53.7428 89.5038 53.7038 89.3431 53.599C89.1843 53.5058 89.0664 53.3341 88.9892 53.0841L88.2711 48.7408ZM101.936 43.8474C102.002 43.6692 102.087 43.5357 102.192 43.4467C102.297 43.3577 102.413 43.3026 102.541 43.2814C102.739 43.2488 102.914 43.2974 103.067 43.4274C103.22 43.5575 103.318 43.7562 103.363 44.0237C103.274 45.0059 103.117 45.9697 102.891 46.915C102.665 47.8603 102.401 48.7939 102.1 49.7159C101.798 50.6378 101.471 51.552 101.12 52.4583C100.77 53.3763 100.432 54.2982 100.107 55.224C100.035 55.3673 99.9453 55.4718 99.8367 55.5376C99.73 55.6149 99.6243 55.6623 99.5197 55.6796C99.3452 55.7084 99.1835 55.6694 99.0344 55.5627C98.8854 55.4559 98.7916 55.2862 98.7532 55.0537C98.7474 55.0188 98.7407 54.9781 98.733 54.9316C98.7272 54.8967 98.7263 54.855 98.7302 54.8066C98.9967 54.0338 99.2767 53.2707 99.5703 52.5174C99.8638 51.764 100.145 51.0067 100.413 50.2456C99.8865 49.9504 99.4054 49.6416 98.9699 49.3194C98.5324 48.9856 98.1269 48.6285 97.7534 48.2483C97.3897 47.8544 97.056 47.4258 96.7524 46.9623C96.4468 46.4872 96.1636 45.9665 95.9028 45.4004C95.8528 45.098 95.8735 44.8617 95.9648 44.6913C96.0658 44.5073 96.2209 44.3981 96.4302 44.3634C96.5814 44.3385 96.7296 44.3677 96.8748 44.4512C97.0297 44.5212 97.1545 44.6618 97.2492 44.8731C97.4579 45.3404 97.684 45.7689 97.9276 46.1587C98.181 46.5349 98.4537 46.8841 98.7459 47.2061C99.0478 47.5146 99.371 47.8076 99.7155 48.0851C100.07 48.3491 100.452 48.6025 100.863 48.8452C101.121 48.0259 101.344 47.2066 101.531 46.3872C101.73 45.5659 101.865 44.7193 101.936 43.8474ZM106.73 49.8105C106.685 49.5431 106.741 49.3009 106.896 49.0841C107.052 48.8673 107.257 48.7377 107.513 48.6954C107.78 48.6512 108.023 48.7067 108.239 48.862C108.456 49.0173 108.587 49.2287 108.631 49.4962C108.673 49.752 108.617 49.9883 108.461 50.2051C108.306 50.422 108.095 50.5525 107.827 50.5967C107.572 50.639 107.335 50.5825 107.118 50.4272C106.902 50.2719 106.772 50.0663 106.73 49.8105ZM105.399 40.7841C105.409 40.5555 105.468 40.3724 105.577 40.235C105.697 40.0956 105.827 40.0144 105.966 39.9913C106.116 39.9547 106.269 39.9772 106.426 40.0588C106.582 40.1404 106.714 40.2859 106.82 40.4953L107.815 46.513C107.846 46.7708 107.803 46.981 107.687 47.1436C107.568 47.2946 107.423 47.3903 107.25 47.4308C107.087 47.4577 106.921 47.4255 106.75 47.3342C106.59 47.2294 106.471 47.0519 106.394 46.8018L105.399 40.7841Z" fill="white"/>
</svg>
